<?xml version="1.0" encoding="utf-8"?>
<!-- Generator: Adobe Illustrator 19.0.0, SVG Export Plug-In . SVG Version: 6.00 Build 0)  -->
<svg version="1.1" id="a02cdd3d-0742-4d95-884a-8f77ee9b02ff"
	 xmlns="http://www.w3.org/2000/svg" xmlns:xlink="http://www.w3.org/1999/xlink" x="0px" y="0px"
	 viewBox="-284.7 9.9 1083.3 787.5" style="enable-background:new -284.7 9.9 1083.3 787.5;" xml:space="preserve">
<style type="text/css">
	.st0{fill:#3F3D56;}
	.st1{fill:#FF6347;}
	.st2{fill:#2F2E41;}
	.st3{fill:#A0616A;}
	.st4{opacity:0.1;enable-background:new    ;}
	.st5{fill:#F2F2F2;}
</style>
<title>skateboard</title>
<path class="st0" d="M37.1,582.8c12.4,23,38.8,32.9,38.8,32.9s6.2-27.5-6.2-50.5s-38.8-32.9-38.8-32.9S24.7,559.7,37.1,582.8z"/>
<path class="st1" d="M45.7,575.2c22.4,13.5,31.1,40.3,31.1,40.3s-27.7,4.9-50.2-8.6s-31.1-40.3-31.1-40.3S23.2,561.7,45.7,575.2z"/>
<rect x="-191" y="622" class="st2" width="896" height="2"/>
<path class="st3" d="M423.3,136.5l41-8c0,0,10-34,22-30s-8,38-8,38l-57,26L423.3,136.5z"/>
<path class="st3" d="M174.3,170.5l-18,23c0,0-26-1-18,13s26,6,27,3s30-29,30-29L174.3,170.5z"/>
<path class="st1" d="M247.8,144l15-8c0,0,64-5,88,11s-101,18-101,18L247.8,144z"/>
<path class="st0" d="M276.3,129.5c0,0-8-19,3-21c6.3-1.2,12.7-1.2,19,0l-12,10L276.3,129.5z"/>
<path class="st4" d="M276.3,129.5c0,0-8-19,3-21c6.3-1.2,12.7-1.2,19,0l-12,10L276.3,129.5z"/>
<path class="st2" d="M221.3,244.5l-29-2l5,9c0,0-40,12-27,46s33,66,33,66l13,25c0,0,27,4,28-4s0-12-5-16s-8-12-8-16s1-8-2-10
	s-4-5-4-11s-11-28-11-28s35-1,46,8c11,9,47,43,47,43c2,2.1,3.7,4.4,5,7c2,4,2,6,6,8s1,10,0,11s-11,41-11,41s-11,19,1,20s23,2,24,0
	c1.1-2.8,2.4-5.4,4-8c3-5,0-16,0-16s29-37,20-60s-28-75-28-75l-29-12l-53-19L221.3,244.5z"/>
<path class="st2" d="M219.3,383.5c0,0-6,23-8,24s-24,20-9,23s26,2,29-1s2-6,7-7s14-4,13-11s-6-26-9-28S219.3,383.5,219.3,383.5z"/>
<path class="st2" d="M306.3,434.5c0,0-9,7-4,20s12,27,12,27s8,25,21,21c5.3-1.6,7.9-6.1,9.2-10.7c1.9-7.2,0.5-14.8-3.6-20.9
	l-7.6-11.3l-8-21L306.3,434.5z"/>
<path class="st3" d="M281.3,140.5c0,0-12-1-14,2s-11,43,0,47s44,11,49,6s7-49,7-49L281.3,140.5z"/>
<path class="st4" d="M281.3,140.5c0,0-12-1-14,2s-11,43,0,47s44,11,49,6s7-49,7-49L281.3,140.5z"/>
<path class="st5" d="M263.3,173.5c0,0,14,14,23,12s30-11,32-15s27-5,27-5l-27,75l19,63c0,0,11-13-19-14s-70-16-77-36c0,0-44-6-46-7
	s5-7,5-7l29-8l21-27L263.3,173.5z"/>
<path class="st1" d="M272.3,142.5c0,0,5-7,0-7s-19,0-24,1s-24-4-26,2s-2,43,2,46s6,3,1,9s-17,26-14,33s-32,9-27,17
	c2.8,4.6,7.6,7.6,13,8c0,0,2-16,14-8s28,28,41,15c13-13,18-25,19-42s0-28-2-38S272.3,142.5,272.3,142.5z"/>
<path class="st1" d="M324.3,161.5c0,0,8,7,0,24s-29,57-12,83s24,33,20,38c-2.4,3.2-3.8,7-4,11l11-4c0,0,2-14,6-24s-8-40-8-40l4-39
	c0,0,16-25,18-26s-4-44-4-44s-10-3-15,0S324.3,161.5,324.3,161.5z"/>
<path class="st1" d="M228.3,139.5h-6l-41,21c0,0-3-13-5-10s-1,11-6,13s-8,5,0,9s9,1,9,8s6,8,11,6s6-3,11-1s2,5,9,2s25-2,25-2
	L228.3,139.5z"/>
<path class="st1" d="M348.3,142.5l7-2c0,0,21,2,26,2s10-1,13-1s18-2,20-4s11-7,12-4s12,22,2,31s-12,5-18,9s-54,12-55,11
	S348.3,142.5,348.3,142.5z"/>
<circle class="st3" cx="307.3" cy="150.5" r="30"/>
<path class="st2" d="M285.3,151.7c0.3,0.7,0.6,1.4,0.6,2.1c0.8,3.5,3.9,6,7.5,6.1c-0.6,2.5,1,5,3.6,5.6c0.2,0,0.3,0.1,0.5,0.1
	c2-2.6,3.5-5.6,4.5-8.7c0.2-1.2,0.7-2.4,1.5-3.4c1.1-1.1,2.7-1.4,4.3-1.6c8-1,16-1.6,24.1-1.8c1.1,0.1,2.2-0.1,3.2-0.6
	c2.3-1.5,1.5-5,0.1-7.2c-2.8-4.5-7.1-7.8-12.1-9.4c-3.6-1.2-7.4-1.4-11.1-1.8c-5-0.6-10-1.5-15.1-1.6s-10.3,0.9-14.4,3.9
	c-3,2.1-7.9,8.1-5.5,11.8c0.4,0.6,1.6,0.9,2.1,1.5c0.7,0.8,0.7,2.1,1.5,2.8C281.8,150.5,284.2,150.1,285.3,151.7z"/>
<path class="st0" d="M307.3,100.5c0,0-34,12-31,29s12,37,31,36s29-21.7,29-21.7l-5-28.3C331.3,115.5,312.3,100.5,307.3,100.5z"/>
<path class="st2" d="M303.1,160.5c0,0,13.4-14.5,20.1-6.1C323.2,154.4,322.8,154,303.1,160.5z"/>
<path class="st2" d="M328.3,531.3c-17.9,0-40.1-5.9-61.7-27.4c-52.9-52.5-103.2-57.8-103.7-57.9l0.2-2c0.5,0,51.5,5.4,104.9,58.4
	c27.4,27.3,55.8,28.9,74.7,25.5c12.5-2.3,24.4-7.1,35-14.1l1.2,1.6c-10.8,7.2-23,12.1-35.7,14.4
	C338.2,530.9,333.3,531.3,328.3,531.3z"/>
<circle class="st2" cx="189.8" cy="476" r="12"/>
<circle class="st2" cx="274.8" cy="532" r="12"/>
<path class="st0" d="M492.5,623c-24.3-3.8-47.7-7-70.1-9.7L431,596c-3-1-16,9-16,9l11-50c-15,2-22,53-22,53l-17-17l8.4,19.2
	c-68.7-7.2-127.9-9.5-177.8-9l7.4-14.8c-3-1-16,9-16,9l11-50c-15,2-22,53-22,53l-17-17l8.9,20.4c-34.1,1-68.2,3.7-102,8.2
	c7.4-23,33.2-45.1,33.2-45.1c-19.8,6.2-30.1,16.2-35.5,25.5c-1.1-47.2,6.2-94.3,21.5-139c0,0-40,90-34,150l0.8,10.7
	C39,617.6,21.5,623,21.5,623H492.5z"/>
</svg>
