<?xml version="1.0" encoding="utf-8"?>
<!-- Generator: Adobe Illustrator 19.0.0, SVG Export Plug-In . SVG Version: 6.00 Build 0)  -->
<svg version="1.1" id="bcc9b610-7a91-4b40-ac6c-fb3fc22936db"
	 xmlns="http://www.w3.org/2000/svg" xmlns:xlink="http://www.w3.org/1999/xlink" x="0px" y="0px"
	 viewBox="-286 -32.6 1082.1 786.3" style="enable-background:new -286 -32.6 1082.1 786.3;" xml:space="preserve">
<style type="text/css">
	.st0{fill:#D0CDE1;}
	.st1{fill:#3F3D56;}
	.st2{fill:#FF6584;}
	.st3{fill:#5CC9A7;}
	.st4{fill:#F1F1F1;}
	.st5{fill:#FBBEBE;}
	.st6{fill:#2F2E41;}
	.st7{opacity:0.1;enable-background:new    ;}
	.st8{fill:#A0616A;}
</style>
<title>our_solution</title>
<ellipse class="st0" cx="255.1" cy="637.9" rx="447.1" ry="28.1"/>
<rect x="-4.9" y="55.1" class="st1" width="520" height="212.1"/>
<path class="st2" d="M69.8,134H31c-2.6-15.3-2.6-30.9,0-46.2h38.8C65.4,102.9,65.3,119,69.8,134z"/>
<path class="st3" d="M150.5,121.1h38.8c2.6-15.3,2.6-30.9,0-46.2h-38.8C154.9,90,154.9,106,150.5,121.1z"/>
<path class="st4" d="M393.8,142.9c20.5,0.2,41-0.4,61.4-1.9l-1.4-1.8c-3.3,8.5-3.3,17.4-2.8,26.4c0.1,2.2,0.8,5.3,0.4,7.5
	c-0.6,2.8-3.1,2.1-5.6,2.2c-5.5,0.2-11,0.3-16.5,0.4c-5.2,0.1-10.4,0.1-15.6,0.1c-2.4,0-4.9,0-7.3-0.1c-2.9,0-6.1,0.8-6.9-2.5
	c-0.5-2.1,0-4.9,0-7.1l0-8l0-16c0-0.8-0.7-1.4-1.5-1.4c-0.7,0-1.3,0.6-1.4,1.4l0,19.6l0,8.9c0,1.8-0.4,3.9,0.3,5.6
	c1.5,3.9,8.1,2.4,11.2,2.4c6.4,0.1,12.9,0,19.3,0c6.4-0.1,12.8-0.2,19.3-0.4c2.8-0.1,6.6,0.5,7.4-2.9c0.6-2.4-0.1-5.5-0.2-8
	c-0.1-2.8-0.3-5.6-0.3-8.4c-0.1-6.5,0.6-12.9,3-18.9c0.2-0.8-0.2-1.5-1-1.7c-0.1,0-0.2,0-0.4,0c-20.4,1.5-40.9,2.1-61.4,1.9
	c-0.8,0-1.4,0.7-1.4,1.5C392.4,142.2,393,142.8,393.8,142.9L393.8,142.9z"/>
<path class="st4" d="M399.6,144.4c8.8,3.1,17.3,6.8,25.6,11.1c7.4,3.8,17.1,8,22.2,14.9c1.1,1.4,3.5,0,2.4-1.4
	c-5.2-7-14.2-11.1-21.7-15.1c-9-4.7-18.2-8.8-27.8-12.1C398.6,141.1,397.9,143.8,399.6,144.4L399.6,144.4z"/>
<path class="st4" d="M454.7,139.4c-9.3,4-17.2,11.6-25.5,17.3c-9,6.1-18.3,11.9-27.8,17.2c-1.6,0.9-0.2,3.3,1.4,2.4
	c9.5-5.3,18.8-11,27.8-17.2c8.3-5.7,16.2-13.3,25.5-17.3C457.8,141.1,456.3,138.7,454.7,139.4z"/>
<path class="st4" d="M211.6,148.1c19,0.3,38,0.2,56.9-0.2c1.8,0,1.8-2.9,0-2.8c-19,0.4-38,0.5-56.9,0.2c-0.8,0-1.4,0.7-1.4,1.5
	C210.2,147.5,210.8,148.1,211.6,148.1L211.6,148.1z"/>
<path class="st4" d="M213.2,160.9c19.5,0.3,39,0.2,58.5-0.3c1.8,0,1.8-2.9,0-2.8c-19.5,0.5-39,0.6-58.5,0.3c-0.8,0-1.4,0.7-1.4,1.5
	C211.8,160.3,212.4,160.9,213.2,160.9z"/>
<path class="st4" d="M211,174.7l55.3-2.6c1.8-0.1,1.8-2.9,0-2.8l-55.3,2.6C209.2,171.9,209.2,174.8,211,174.7z"/>
<path class="st4" d="M297.2,161.3h52.7c0.8,0,1.4-0.7,1.4-1.5c0-0.7-0.6-1.3-1.4-1.4h-52.7c-0.8,0-1.4,0.7-1.4,1.5
	C295.9,160.7,296.5,161.3,297.2,161.3z"/>
<path class="st4" d="M347.6,145.2l8.2,7.5c0.9,0.9,3.5,2.6,4.1,3.8c1.2,2.3-0.1,1.8-2.2,2.6c-5.1,2-9.8,4.9-13.9,8.6
	c-1.4,1.2,0.6,3.2,2,2c3.7-3.3,8-6,12.6-7.9c1.7-0.7,4.8-1,5.6-3c1-2.4-2.1-4.2-3.6-5.5l-11-10C348.3,142,346.3,144,347.6,145.2
	L347.6,145.2z"/>
<path class="st3" d="M219.8,255.1h38.8c2.6-15.3,2.6-30.9,0-46.2h-38.8C224.1,224,224.1,240,219.8,255.1z"/>
<path class="st3" d="M58.3,220.4h38.8c2.6-15.3,2.6-30.9,0-46.2H58.3C62.7,189.3,62.7,205.3,58.3,220.4z"/>
<path class="st3" d="M303.3,119h38.8c2.6-15.3,2.6-30.9,0-46.2h-38.8C307.7,87.9,307.7,103.9,303.3,119z"/>
<polygon class="st5" points="688.9,589.9 694,610.1 671.7,616.2 669.7,595 "/>
<polygon class="st5" points="608,615.2 608,634.4 585.8,638.4 581.8,628.3 589.9,611.1 "/>
<path class="st6" d="M652.5,406l-3,27.3l2,52.6c1.6,0,3,1.3,3,2.9c0,0,0,0.1,0,0.1c0,3-3,2,0,4c1.6,1.1,3.3,2.1,5.1,3l32.3,98
	c0,0-8.1,10.1-23.2,7.1l-3-10.1c0,0-6.1-6.1-6.1-9.1s2-4,0-7.1s-32.3-64.7-32.3-64.7l-14.1-25.3l-4,34.4c0,0,8.1,43.5,6.1,63.7
	s-6.1,41.4-6.1,41.4l-24.3-4c-0.1-3.3-1.2-6.4-3-9.1c-3-4-7.1-3-3-6.1s9.1,0,5.1-4s-4-8.1-4-8.1v-3l-6.1-77.8L562.6,410L652.5,406z"
	/>
<circle class="st5" cx="583.8" cy="194.7" r="27.3"/>
<polygon class="st5" points="607.5,195.3 618.7,222.5 592.4,241.7 576.2,213.4 "/>
<path class="st0" d="M609.1,216l10.1-5.1l6.1,14.1c0,0,39.4,12.1,36.4,67.7s-10.1,76.8-10.1,76.8s17.2,36.4,7.1,40.4
	s-96,19.2-98,5.1s7.1-97,7.1-97s-3-59.6,22.2-71.8l-5.1-11.1L609.1,216z"/>
<path class="st5" d="M553.5,412c0,0-23.2,24.3-10.1,30.3s21.2-27.3,21.2-27.3L553.5,412z"/>
<path class="st6" d="M601,629.3l11.1-4c0,0,12.1,27.3,2,27.3h-26.3c0,0-15.2-5.1-23.2-5.1s-23.2-15.2-12.1-22.2s25.3-5.1,25.3-5.1
	l4-9.1l5.1,14.1C586.8,625.3,592.9,635.4,601,629.3z"/>
<path class="st6" d="M682.8,607.1c0,0,6.3-4,9.7-2.5s5.4,17.7,5.4,17.7s10.1,12.1-12.1,14.1s-27.3-2-29.3-8.1s2-12.1,2-12.1l6.1-2
	c0,0,7.1-5.1,5.1-7.1s0-6.1,0-6.1S676.8,615.2,682.8,607.1z"/>
<path class="st6" d="M593.1,194.3c-0.1-0.9-0.3-1.8-0.6-2.6c-1.5-3.1-7.2-2.2-8.2-5.4c-0.2-0.6-0.2-1.3-0.4-2
	c-0.5-1.6-2.4-2.4-4.1-2.4c-1.7,0.2-3.3,0.7-4.9,1.3c-4,1.1-8.3,0.7-12.4,0.3c-1.8-0.1-3.6-0.5-5.3-1.4c-1.6-1-2.7-2.9-2.1-4.6
	c0.5-1.7,2.4-2.6,3.2-4.2c1.3-2.5-0.3-5.7,0.8-8.3c1.7-4.2,8.1-3.3,11.4-6.4c0.8-0.7,1.4-1.7,2.1-2.5c2.3-2.3,5.8-2.8,9-2.4
	s6.4,1.3,9.6,1.2c3.1-0.1,6.3-1,9.1,0.2c1.7,0.8,3.1,2,4.3,3.5l7.2,7.9c1,0.9,1.8,2.1,2.2,3.4c0.4,1.5,0,3.2,0.2,4.7
	c0.4,3.6,3.8,6.3,4.2,9.9c0.1,1.1,0,2.2-0.2,3.3l-1,7.5c-0.1,0.7-0.2,1.4-0.6,2.1c-0.3,0.5-0.7,0.9-1.1,1.4
	c-0.9,1.4-0.9,3.1-1.3,4.7c-0.5,1.6-2.1,3.1-3.6,2.4c-1-0.5-1.6-4.6-2.7-5.7c-1.6-1.5-2.5-1.3-4.4-1.3
	C599.7,199.1,594.4,199.4,593.1,194.3z"/>
<path class="st0" d="M597.9,253.4c0,0,30.3,12.1,21.2,39.4S585.8,404,585.8,404l-14.1,7.1l-4,11.1l-19.2-7.1l3-15.2c0,0,1-1,1-5.1
	s-4-5.1,1-5.1s5.1-5.1,5.1-5.1l18.2-113.2C576.7,271.6,576.7,252.4,597.9,253.4z"/>
<polygon class="st7" points="620.7,298.3 589.4,405.5 576.2,418.6 583.8,405 "/>
<polygon class="st6" points="-131.1,234.2 -99.4,239.5 -88.8,189.2 -114.4,178.6 "/>
<circle class="st8" cx="-87.5" cy="196.7" r="27.3"/>
<path class="st8" d="M-99.4,212.1c0,0,2.6,33.5-17.6,36.2s17.6,62.6,27.4,61.8s27.4-65.3,27.4-65.3s-22.9-15.9-15-30L-99.4,212.1z"
	/>
<path class="st8" d="M-133.3,334.3c0,0,3.5,25.6,14.1,25.6s-7.1-29.1-7.1-29.1L-133.3,334.3z"/>
<path class="st8" d="M21.1,359.9c0,0,26.5,22.1,22.9,29.1s-26.5-7.9-28.2-25.6L21.1,359.9z"/>
<path class="st8" d="M-138.6,444.6l-16.8,62.6l-18.5,75.9h17.6c0,0,6.2-23.8,17.6-36.2c0,0,11.5-19.4,11.5-32.6l27.4-64.4
	L-138.6,444.6z"/>
<path class="st8" d="M-66.3,448.1l5.3,59.1c0,0-0.9,42.3,0,52.1s0,23.8,0,23.8h15.9c0,0,15-52.1,10.6-80.3l6.2-66.2L-66.3,448.1z"/>
<path class="st6" d="M-87.5,285.8c0,0-23.8-18.8-17.6-45.2c0,0-23.8,1-33.6,10.7s2.6,42.3,2.6,42.3s21.2,35.3,17.6,51.2
	s-41.5,99.7-29.1,105s87.3,23.8,125.3-7.1c0,0,9.7-87.3-29.1-115.6v-22.1c0,0,7.1-6.2,3.5-22.1c0,0,15-27.4,6.2-32.6
	s-29.1-13.1-29.1-13.1S-68.9,277-87.5,285.8z"/>
<path class="st6" d="M-133.3,251.4c0,0-11.5-1.8-22.9,15s-41.5,43.2-27.4,56.5s52.1,22.1,52.1,22.1l8.8-15.9l-37.9-18.5l31.8-23.8
	L-133.3,251.4z"/>
<path class="st6" d="M-46,251.4c0,0,12.4,0,17.6,15s36.2,66.2,36.2,66.2l17.6,27.4L13.1,374l-34.4-38.8l-32.6-53.8L-46,251.4z"/>
<path class="st6" d="M-152.7,581.4h-24.7l-5.3,43.2c0,0-14.1,22.9,7.1,20.3s14.1-26.5,14.1-26.5l5.3-8.8l1.8,18.5l1.8-0.9V607
	C-152.7,607-143,598.1-152.7,581.4z"/>
<path class="st6" d="M-40.7,581.4l-22.9-1.8l-4.4,49.4c0,0-2.6,18.5,13.2,15.9s10.6-17.6,10.6-17.6v-27.3L-40.7,581.4z"/>
<path class="st6" d="M-107.3,168.9c0,0-12.9,4.3-13.5,21.2c-0.1,2.7,0.2,5.4,0.9,8c0.7,3.1,1.2,9.7-4.4,18.3
	c-3.8,5.7-7.2,11.6-10.3,17.7l0,0.1l14.1,1.8l3-23.4c1.5-11.3,4.6-22.4,9.3-32.8l0.1-0.2c0,0,6.2,11.5,18.5,11.5l-4.4-4.4
	c0,0,19.4,7.9,26.5,7.9c0,0,5.3,3.5,0,8.8s-15.9,17.6-9.7,27.4s0.9,12.4,0.9,12.4l9.7-5.3l4.4-2.6v3.5l22.9-2.6
	c0,0,6.2-0.9-7.1-15.9c0,0-3.5-5.8-2-10.8c1.3-3.8,1.6-7.9,1-11.9C-50.4,180.8-62,148-107.3,168.9z"/>
<path class="st1" d="M394.1,664.3c-0.1-0.2-3-4.9-3.9-14.7c-0.9-9-0.3-24.2,7.6-45.4c14.9-40.1-3.4-72.5-3.6-72.8l0.9-0.5
	c3.5,6.8,6.1,14,7.6,21.5c3.7,17.4,2.4,35.5-3.9,52.2c-14.9,40.1-3.8,59-3.7,59.2L394.1,664.3z"/>
<circle class="st1" cx="388.3" cy="522.2" r="6.8"/>
<circle class="st1" cx="409.8" cy="547.3" r="6.8"/>
<circle class="st3" cx="395.1" cy="564.1" r="6.8"/>
<circle class="st3" cx="412.9" cy="578.2" r="6.8"/>
<circle class="st1" cx="389.9" cy="600.2" r="6.8"/>
<path class="st1" d="M398.2,664.5c0,0-6.8-16.7,13.6-29.3L398.2,664.5z"/>
<path class="st1" d="M389.9,664.2c0,0-3.1-17.8-27.1-17.7L389.9,664.2z"/>
<path class="st0" d="M119.9,614.8c-0.1-0.2-3-4.9-3.9-14.7c-0.9-9-0.3-24.2,7.6-45.4c14.9-40.1-3.4-72.5-3.6-72.8l0.9-0.5
	c3.5,6.8,6.1,14,7.6,21.5c3.7,17.4,2.4,35.5-3.9,52.2c-14.9,40.1-3.8,59-3.7,59.2L119.9,614.8z"/>
<circle class="st1" cx="114.1" cy="472.7" r="6.8"/>
<circle class="st1" cx="135.6" cy="497.9" r="6.8"/>
<circle class="st0" cx="120.9" cy="514.6" r="6.8"/>
<circle class="st0" cx="138.7" cy="528.7" r="6.8"/>
<circle class="st1" cx="115.7" cy="550.7" r="6.8"/>
<path class="st0" d="M124.1,615.1c0,0-6.8-16.7,13.6-29.3L124.1,615.1z"/>
<path class="st0" d="M115.7,614.8c0,0-3.1-17.8-27.1-17.7L115.7,614.8z"/>
</svg>
