<?xml version="1.0" encoding="utf-8"?>
<!-- Generator: Adobe Illustrator 19.0.0, SVG Export Plug-In . SVG Version: 6.00 Build 0)  -->
<svg version="1.1" id="fa60aa3c-ac5a-409e-a10f-995c3361be0f"
	 xmlns="http://www.w3.org/2000/svg" xmlns:xlink="http://www.w3.org/1999/xlink" x="0px" y="0px" viewBox="-98 -33.3 1082.1 786.3"
	 style="enable-background:new -98 -33.3 1082.1 786.3;" xml:space="preserve">
<style type="text/css">
	.st0{opacity:0.1;fill:#FFC431;enable-background:new    ;}
	.st1{fill:#FFC431;}
	.st2{opacity:0.1;enable-background:new    ;}
	.st3{fill:#FFD037;}
	.st4{fill:#A8A8A8;}
	.st5{opacity:0.2;enable-background:new    ;}
	.st6{opacity:0.8;}
	.st7{fill:#E74D89;}
	.st8{fill:#B2215A;}
	.st9{fill:url(#SVGID_1_);}
	.st10{fill:#925978;}
	.st11{fill:#FF6484;}
	.st12{fill:#575988;}
	.st13{fill:#FFC5CB;}
	.st14{fill:#E8F4FF;}
	.st15{opacity:0.1;fill:#FFFFFF;enable-background:new    ;}
	.st16{opacity:0.1;}
	.st17{fill:#1769FF;}
	.st18{fill:#FFFFFF;}
	.st19{fill:#B3BBC6;}
	.st20{fill:#666C76;}
	.st21{fill:url(#SVGID_2_);}
	.st22{fill:#FFAAB0;}
	.st23{fill:#DCE6F2;}
	.st24{fill:#F1FAFF;}
	.st25{fill:#794F6A;}
	.st26{fill:#61BEEC;}
	.st27{fill:#4064AC;}
	.st28{fill:#D4DFEC;}
</style>
<title>design community</title>
<path class="st0" d="M247.5-3.6c29.2-26,75.1-31.3,116.8-29.3C495.4-26.4,613.7,36.9,716,108.5c37.1,25.9,73.5,53.8,97.6,89.5
	c49,72.6,34.4,173.3-33.6,233.1c-23.2,20.4-51.3,36-80.1,49.8c-51.3,24.6-106.6,44.4-164.7,50c-41.5,4-83.5,0.8-124.7-4.8
	c-115.2-15.6-228.3-50.2-323.1-109.3c-41.6-25.9-80.8-58.2-97.9-100.1s-6.2-95.1,36.3-119.9c17.6-10.3,38.6-14.9,59.1-19.3
	c30.3-6.4,61-12.7,88.3-25.8c28.2-13.5,61.6-39.5,56-69.3C223.1,50.5,218.3,22.4,247.5-3.6z"/>
<ellipse class="st0" cx="752.4" cy="674.7" rx="109.5" ry="7"/>
<ellipse class="st0" cx="467.9" cy="627.7" rx="109.5" ry="7"/>
<ellipse class="st0" cx="66.1" cy="739.1" rx="109.5" ry="7"/>
<ellipse class="st0" cx="274.1" cy="750.1" rx="45" ry="2.9"/>
<ellipse class="st0" cx="949" cy="675.7" rx="35.1" ry="2.3"/>
<ellipse class="st0" cx="626.8" cy="628.8" rx="29.8" ry="1.9"/>
<path class="st1" d="M954,621.7c0,0,4.7,6.2-2.2,15.4s-12.5,17.1-10.3,22.9c0,0,10.4-17.2,18.8-17.5S963.3,632.1,954,621.7z"/>
<path class="st2" d="M954,621.7c0.4,0.6,0.8,1.2,1,1.9c8.2,9.7,12.6,18.7,4.7,18.9c-7.4,0.2-16.2,13.4-18.3,16.7
	c0.1,0.3,0.2,0.5,0.3,0.8c0,0,10.4-17.2,18.8-17.5S963.3,632.1,954,621.7z"/>
<path class="st3" d="M962.8,629.5c0,2.2-0.2,3.9-0.5,3.9s-0.5-1.8-0.5-3.9s0.3-1.1,0.6-1.1S962.8,627.4,962.8,629.5z"/>
<path class="st3" d="M965.8,632.1c-1.9,1-3.6,1.7-3.7,1.4s1.3-1.3,3.2-2.4s1.2-0.3,1.3,0S967.7,631.1,965.8,632.1z"/>
<path class="st1" d="M929.2,621.7c0,0-4.7,6.2,2.2,15.4s12.5,17.1,10.2,22.9c0,0-10.4-17.2-18.8-17.5S920,632.1,929.2,621.7z"/>
<path class="st2" d="M929.2,621.7c-0.4,0.6-0.8,1.2-1,1.9c-8.2,9.7-12.6,18.7-4.7,18.9c7.4,0.2,16.2,13.4,18.3,16.7
	c-0.1,0.3-0.2,0.5-0.3,0.8c0,0-10.4-17.2-18.8-17.5S920,632.1,929.2,621.7z"/>
<path class="st3" d="M920.5,629.5c0,2.2,0.2,3.9,0.5,3.9s0.6-1.8,0.6-3.9s-0.3-1.1-0.6-1.1S920.5,627.4,920.5,629.5z"/>
<path class="st3" d="M917.5,632.1c1.9,1,3.6,1.7,3.7,1.4s-1.3-1.3-3.2-2.4s-1.2-0.3-1.3,0S915.6,631.1,917.5,632.1z"/>
<path class="st4" d="M922,659.2c0,0,13.1-0.4,17.1-3.2s20.2-6.2,21.2-1.7s19.7,22.5,4.9,22.6s-34.5-2.3-38.4-4.7
	S922,659.2,922,659.2z"/>
<path class="st5" d="M965.5,675.4c-14.8,0.1-34.5-2.3-38.4-4.7c-3-1.8-4.2-8.4-4.6-11.5H922c0,0,0.8,10.6,4.8,13s23.6,4.8,38.4,4.7
	c4.3,0,5.8-1.5,5.7-3.8C970.3,674.5,968.7,675.3,965.5,675.4z"/>
<path class="st1" d="M632.1,582.6c0,0,4,5.3-1.9,13.2s-10.7,14.6-8.8,19.6c0,0,8.9-14.7,16.1-15S640,591.5,632.1,582.6z"/>
<path class="st2" d="M632.1,582.6c0.3,0.5,0.6,1.1,0.8,1.7c7,8.3,10.8,16,4,16.2c-6.3,0.2-13.9,11.5-15.7,14.3
	c0.1,0.2,0.1,0.4,0.2,0.6c0,0,8.9-14.7,16.1-15S640,591.5,632.1,582.6z"/>
<path class="st3" d="M639.6,589.3c0,1.8-0.2,3.3-0.5,3.3s-0.5-1.5-0.5-3.3s0.3-1,0.5-1S639.6,587.5,639.6,589.3z"/>
<path class="st3" d="M642.2,591.6c-1.6,0.9-3,1.4-3.2,1.2s1.1-1.1,2.7-2s1-0.2,1.1,0S643.8,590.7,642.2,591.6z"/>
<path class="st1" d="M610.9,582.6c0,0-4,5.3,1.8,13.2s10.7,14.6,8.8,19.6c0,0-8.9-14.7-16.1-15S603,591.5,610.9,582.6z"/>
<path class="st2" d="M610.9,582.6c-0.4,0.5-0.6,1.1-0.8,1.7c-7,8.3-10.8,16-4,16.2c6.3,0.2,13.9,11.5,15.7,14.3
	c-0.1,0.2-0.1,0.4-0.2,0.6c0,0-8.9-14.7-16.1-15S603,591.5,610.9,582.6z"/>
<path class="st3" d="M603.4,589.3c0,1.8,0.2,3.3,0.5,3.3s0.5-1.5,0.5-3.3s-0.3-1-0.5-1S603.4,587.5,603.4,589.3z"/>
<path class="st3" d="M600.8,591.6c1.6,0.9,3,1.4,3.2,1.2s-1.1-1.1-2.7-2s-1-0.2-1.1,0S599.2,590.7,600.8,591.6z"/>
<path class="st4" d="M604.7,614.7c0,0,11.2-0.3,14.6-2.8s17.3-5.3,18.1-1.4s16.9,19.3,4.2,19.3s-29.5-2-32.9-4
	S604.7,614.7,604.7,614.7z"/>
<path class="st5" d="M641.9,628.6c-12.7,0.1-29.5-2-32.9-4c-2.6-1.6-3.6-7.2-3.9-9.8h-0.4c0,0,0.7,9.1,4.1,11.1s20.2,4.1,32.9,4
	c3.7,0,4.9-1.3,4.9-3.3C646,627.9,644.6,628.5,641.9,628.6z"/>
<g class="st6">
	<path class="st7" d="M49.8,588.5c41.3,0,74.8,33.5,74.7,74.8S91,738.1,49.7,738C8.4,738-25,704.6-25,663.3
		c0-41.3,33.4-74.8,74.7-74.8C49.7,588.5,49.7,588.5,49.8,588.5z"/>
	<path class="st8" d="M49.8,743.4c-44.2,0-80.1-36-80-80.2s36-80.1,80.2-80c44.2,0,80,35.9,80,80.1C129.9,707.5,94,743.4,49.8,743.4
		z M117.4,674.2c-13.8-4-28.4-5.1-42.7-3C80.6,687,85,703.4,88.1,720C103.8,709.5,114.4,692.9,117.4,674.2z M76.5,726.3
		c-3.2-17.7-8.1-35.1-14.6-51.9c-0.1,0.1-0.3,0.1-0.4,0.1C22.8,688,9,714.8,7.7,717.3c12,9.4,26.8,14.4,42,14.4
		C58.9,731.8,68,729.9,76.5,726.3L76.5,726.3z M-1.1,709.1c1.6-2.6,20.4-33.7,55.7-45.2c0.9-0.3,1.8-0.6,2.7-0.8
		c-1.7-3.9-3.6-7.8-5.6-11.6c-34.2,10.2-67.4,9.8-70.4,9.7c0,0.7-0.1,1.4-0.1,2.1C-18.7,680.2-12.4,696.5-1.1,709.1z M-17.3,649.3
		c21.4-0.1,42.6-2.9,63.3-8.3c-7.7-13.6-16.2-26.8-25.4-39.5C1.2,610.6-12.8,628.3-17.3,649.3L-17.3,649.3z M33.7,596.8
		c9.4,12.8,17.9,26.1,25.6,40c24.4-9.1,34.6-22.9,35.9-24.7c-12.5-11.1-28.7-17.3-45.4-17.2C44.4,594.9,39,595.6,33.7,596.8
		L33.7,596.8z M102.8,620.1c-1.4,2-12.9,16.7-38.2,27c1.6,3.3,3.1,6.6,4.6,9.9c0.5,1.2,1,2.4,1.5,3.5c22.8-2.9,45.4,1.8,47.7,2.2
		C118.2,647.1,112.7,632.1,102.8,620.1L102.8,620.1z"/>
</g>
<linearGradient id="SVGID_1_" gradientUnits="userSpaceOnUse" x1="195.603" y1="-77.9422" x2="195.603" y2="455.3182" gradientTransform="matrix(1 0 0 -1 -58.95 662.5601)">
	<stop  offset="0" style="stop-color:#808080;stop-opacity:0.25"/>
	<stop  offset="0.54" style="stop-color:#808080;stop-opacity:0.12"/>
	<stop  offset="1" style="stop-color:#808080;stop-opacity:0.1"/>
</linearGradient>
<path class="st9" d="M235.2,435c-1.8-2.3-3.9-17.9-3.9-17.9l-8-39.8l-4.1-22.9c0,0-1-29-19.1-43.3l-1.4-1.1c0-0.3,0-0.5,0-0.8l0,0
	l0,0c-0.2-2.8-0.8-5.5-1.8-8.1c-0.4-0.8-0.7-1.8-0.6-2.7c0-0.4,0.2-0.7,0.4-1.1l0,0c0.8-1.2,2-2.1,3.3-2.7c3.3-2,6.1-5.1,6.9-8.9
	c0-0.1,0-0.2,0-0.3c0-0.2,0-0.3,0.1-0.5c0.1-0.2,0-0.2,0-0.3c0-0.2,0-0.3,0-0.5v-0.2c0-0.2,0-0.4,0-0.6c0,0,0-0.1,0-0.1
	c0-0.2,0-0.5-0.1-0.7v0l0,0c-0.4-2.8-2.1-5.1-4.6-6.3c0.9-0.2,1.7-0.9,2-1.7l0,0c0.1-0.2,0.2-0.5,0.3-0.8l0,0
	c0.1-0.2,0.1-0.5,0.1-0.8c0,0,0-0.1,0-0.1c0-0.2,0-0.4,0-0.7c0-0.1,0-0.1,0-0.2c0-0.2-0.1-0.4-0.1-0.6c0-0.1,0-0.1,0-0.2l-0.1-0.1
	l0,0c-0.7-1.9-2.3-3.4-3.6-4.9c-7.9-8.8-9.4-21.3-11.6-32.8c-1.2-6.4-3.4-13.7-9.6-16.1c-1.8-0.6-3.5-1-5.3-1.4
	c-5.5-1.5-10-5.3-15.4-7.2c-3.6-1.2-7.5-1.6-11.3-1c-2.9,0.5-5.3,1.9-8.1,2.6c-6,1.5-13.3-0.2-18,4.7c-3.3,3.4-3.6,8.5-5.2,12.9
	c-3.1,8.1-11.1,14.1-13.1,22.5c-1.3,5.5,0,11,1.5,16.5c1.1,3.7,1.8,7.5,2.2,11.3c0.1,1,0.1,1.9,0,2.9c-0.2,2.8-0.9,5.6-1.9,8.2
	c-6.8,2.5-13.8,5.5-14.3,7.1c-1,3.3-17.3,12.6-17.3,12.6s-6.2,5.3-6.2,7.3c0,2-2.1,8.3-3.4,8.3c-1.3,0-3.9,25.4-3.9,25.4v26.4
	c0,0-9.6,31.2-11.8,58.9c0,0-3.9,17.7,2.4,27.8c0.8,1.4,1.9,2.6,3.1,3.6l3.2,8.4c1.1-1.9,2.6-3.6,4.3-5c0.2,1,0.3,2.3,0.6,3.7
	c0.3,1.7,0.6,3.7,1,5.8c-2,3.1-6.8,9.7-12.6,12.1c-5.4,2.3,1.6,8.2,6.4,11.7c-1.3,6.4-3.1,14.2-4.6,15.2
	c-2.6,1.8-10.9,23.9-10.9,23.9s-16.3,38,7.1,42.3s35.3-5.8,35.3-5.8h5.6c0,0,6.8-3.8,7-11.8c3.8-3.1,9.7-8.1,10.9-10.1
	s-2.1-8.5-4.2-12.1l0.5-1c0,0,22.2-28.5,25.1-25.4s4.6,7.8,3.4,10.8l1.2,17.4V574c0,0-3.2,12.3,0,13.6s0,6,0,6s1.2,5.5,1.4,7.3
	c0.1,2.3,0.1,4.5,0,6.8l-1.1,27.2l-2.1,40.3c0,0-2.3,3.3-0.5,5.5s1,7.6,0.5,8.6s-0.8,9.3-0.8,9.3s-7.5,7.8-1.5,9.8l0.2,0.1
	c-2.5,2.3-2.5,7.4-2.3,9s-1.6,8-2.9,11.6c-0.3,0.9-0.7,1.8-1.2,2.6c-0.9,0.6,0,7.7,0,7.7s29.1,2.4,31.5,0c1-0.9,0.8-3.2,0-5.8
	c-1.1-3.8-2.6-7.5-4.4-11c-1.7-3.1-0.9-7.2-0.9-7.2v-3c2,0.3,3.2,0.5,3.2,0.5s3.6-3,2.1-5.8s2.8-18.4,2.8-18.4s4.9-17.6,4.9-19.4
	s6.5-24.7,6.5-24.7s9.6-40.5,4.9-59.7c0,0,4.1-4.8,3.6-6s-1.7-6.5,0-8.8s9.3-30.5,11.3-35.3c1-2.2,3.3-8.3,5.6-14.3
	c10.3-1.5,22.5-4.4,22.5-4.4s-1.8-7.8-3.2-15.8l1.1-5.5l0.4-1.9c0.9,0.9,1.7,1.9,2.5,3l2.1-10.1c0,0,0.2-0.3,0.6-1
	c2.4-3.8,11.2-17.3,15.4-21.4C240.1,458.9,237.1,437.3,235.2,435z"/>
<rect x="144" y="266.5" class="st10" width="28.5" height="32"/>
<rect x="144" y="266.5" class="st2" width="28.5" height="32"/>
<path class="st11" d="M102.3,542.3c0,0,7.3,11.5,5.5,14.5s-13.7,12.8-13.7,12.8l-3.5-24L102.3,542.3z"/>
<path class="st12" d="M79.8,579.3l5.3-0.8h5.4c0,0,7.2-4.1,6.8-12.8s0-17,0-17L79.8,579.3z"/>
<path class="st2" d="M79.8,579.3l5.3-0.8h5.4c0,0,7.2-4.1,6.8-12.8s0-17,0-17L79.8,579.3z"/>
<path class="st12" d="M90.5,462l-30,33c0,0-3.5,21.8-6,23.5S44,542.3,44,542.3s-15.7,37.8,6.9,42s34.1-5.8,34.1-5.8l19.2-34.8
	c0,0,21.5-28.3,24.3-25.3s4.5,7.8,3.3,10.8l1.2,17.3v27c0,0-3.1,12.3,0,13.5s0,6,0,6s1.2,5.5,1.4,7.3s0,6.8,0,6.8l-1,27l-2,40
	c0,0-2.3,3.3-0.5,5.5s1,7.5,0.5,8.5s-0.8,9.3-0.8,9.3s-7.3,7.8-1.5,9.8s22.5,4.5,22.5,4.5s3.5-3,2-5.8s2.8-18.3,2.8-18.3
	s4.8-17.5,4.8-19.3s6.3-24.5,6.3-24.5s9.3-40.3,4.8-59.3c0,0,4-4.8,3.5-6s-1.7-6.5,0-8.8s9-30.3,11-35s10.5-27.8,10.5-27.8v-42.5
	L90.5,462z"/>
<path class="st13" d="M180.1,311.3l-17.3,32.6l-4.5,8.6l-0.7,1.3l-44.5,1.8c0,0-1.3-2.8-3.1-7.2c-3.1-7.5-7.8-19.8-10.2-30.1
	c-0.6-2.5-1-5-1.3-7.5c-0.7-6.2,0.3-10.7,4.3-11.1c1-0.1,2,0,3,0.3c2.8,0.8,5.7,1.1,8.6,0.8c10.6-1.3,13.6-12.4,14.2-22.9
	c0-0.7,0.1-1.5,0.1-2.2c0-2.3,0-4.5-0.1-6.5c-0.2-3.4-0.6-6.8-1.2-10.2c2.6-1.3,5.4-2.3,8.3-3.1c8.4-2.2,20.3-2.1,20.5,15.3
	c0,3.9,0.4,7.7,1.1,11.5c0.5,2.2,1.2,4.2,2.1,6.2c2.9,5.6,7,6.2,8.9,6.2c0.4,0,0.7,0,1-0.1L180.1,311.3z"/>
<path class="st2" d="M135.6,330.2c0.6,1.8,0.9,3.6,0.9,5.5c0.2,2,0.1,4-0.1,5.9c-0.3,2-1.3,3.8-2.8,5.1"/>
<circle class="st2" cx="148.2" cy="258.6" r="26.8"/>
<path class="st13" d="M175,257.6c0,14.8-12,26.7-26.7,26.8c-7.4,0-14.6-3.1-19.6-8.6c-0.2-0.2-0.5-0.5-0.7-0.8
	c-9.6-11.2-8.4-28.1,2.8-37.7c11.2-9.6,28.1-8.4,37.7,2.8C172.7,245,175,251.2,175,257.6L175,257.6z"/>
<path class="st2" d="M105.3,324.3c0,0,9.5,24.8,29.5,20.8c0,0,20.2,1.6,31.8-13.3c11.6-14.8,12.3,85,12.3,85l-4.5,66.3
	c0,0-32.2,19.3-46.2,16.8s-20.8-10-20.8-10S92.6,476,88.6,474.3s1.8-87,1.8-87l4.8-32L105.3,324.3z"/>
<path class="st14" d="M105.3,322.3c0,0,9.5,24.8,29.5,20.8c0,0,20.2,1.6,31.8-13.3c11.6-14.8,12.3,85,12.3,85l-4.5,66.3
	c0,0-32.2,19.3-46.2,16.8s-20.8-10-20.8-10S92.6,474,88.6,472.3s1.8-87,1.8-87l4.8-32L105.3,322.3z"/>
<path class="st2" d="M104.3,462c0,0,21.5,24,20.3,26.5S103.8,469.3,104.3,462z"/>
<path class="st2" d="M100.6,402.4c0,0,6.9,9.6,11.2,8.6"/>
<path class="st2" d="M115.4,300c0,0,0,0.3-0.1,0.8c-0.2,3.1-1.1,14.2-2.3,26.6c-0.6,7-1.4,14.3-2.1,20.9
	c-1.2,10.7-2.6,19.2-3.7,20.4c-3.3,3.5-2,36.5-2,36.5V447c0,0-2.7,13.3-5,16.3s-7.8,14.3-12.2,15.8c-1.6,0.9-3,2-4.1,3.3
	c-4,4-9.7,10.7-14,15.9c-3.6,4.4-6.2,7.8-6.2,7.8s-17.5-11-10-14.3c5.6-2.4,10.3-8.9,12.2-12c0.7-1,1-1.7,1-1.7
	c0.4-2.3,0.9-4.6,1.6-6.9c0.6-2.1,1.6-4.1,2.8-6c0.9-1.5,2.4-2.7,4.1-3.1c6.5-1.3,9.8-63,9.8-63l-20-43.6l-2-4.4
	c0,0,2.5-25.3,3.8-25.3s3.3-6.3,3.3-8.3s6-7.3,6-7.3s15.9-9.3,16.9-12.5c0.5-1.7,7.8-4.8,14.6-7.3c6.1-2.3,11.8-4.1,11.8-4.1
	C122.7,291.4,115.4,300,115.4,300z"/>
<path class="st11" d="M114.4,300c0,0,0,0.3-0.1,0.8c-0.2,3.1-1.1,14.2-2.3,26.6c-0.6,7-1.4,14.3-2.1,20.9
	c-1.2,10.7-2.6,19.2-3.7,20.4c-3.3,3.5-2,36.5-2,36.5V447c0,0-2.7,13.3-5,16.3s-7.8,14.3-12.2,15.8c-1.6,0.9-3,2-4.1,3.3
	c-4,4-9.7,10.7-14,15.9c-3.6,4.4-6.2,7.8-6.2,7.8s-17.5-11-10-14.3c5.6-2.4,10.3-8.9,12.2-12c0.7-1,1-1.7,1-1.7
	c0.4-2.3,0.9-4.6,1.6-6.9c0.6-2.1,1.6-4.1,2.8-6c0.9-1.5,2.4-2.7,4.1-3.1c6.5-1.3,9.8-63,9.8-63l-20-43.6l-2-4.4
	c0,0,2.5-25.3,3.8-25.3s3.3-6.3,3.3-8.3s6-7.3,6-7.3s15.9-9.3,16.9-12.5c0.5-1.7,7.8-4.8,14.6-7.3c6.1-2.3,11.8-4.1,11.8-4.1
	C121.7,291.4,114.4,300,114.4,300z"/>
<path class="st2" d="M213.9,357.5l-21.6,25.3c0,0,18.8,97.3,16.5,101.8c-0.2,0.4-0.3,0.8-0.3,1.2c-0.2,2.3-0.2,4.7,0.1,7
	c0.3,2.5,0.7,5.2,1.1,7.9c1.3,7.9,3.1,15.6,3.1,15.6s-25.3,6-33,5.3s-3.3-13.3-2-19s-8.5-13.8-8.5-13.8l-13.8-56.5
	c0,0-1-12.5-4-18.5s-0.3-12.5-1.3-21c-0.7-6.1,3.6-27.7,6.9-40.3c1.3-4.8,2.4-8.3,3-9.1c0,0,0.1-0.1,0.1-0.1c2-1.8,0-12,0-12
	s4.8-27,4.3-29.3c-0.3-1.3,1.3-4.4,2.7-6.9c1.1-1.9,2-3.4,2-3.4s9.7,6.1,26.3,19.5l1.5,1.2c17.5,14.3,18.5,43,18.5,43L213.9,357.5z"
	/>
<path class="st11" d="M214.9,357.5l-21.6,25.3c0,0,18.8,97.3,16.5,101.8c-0.2,0.4-0.3,0.8-0.3,1.2c-0.2,2.3-0.2,4.7,0.1,7
	c0.3,2.5,0.7,5.2,1.1,7.9c1.3,7.9,3.1,15.6,3.1,15.6s-25.3,6-33,5.3s-3.3-13.3-2-19s-8.5-13.8-8.5-13.8l-13.8-56.5
	c0,0-1-12.5-4-18.5s-0.3-12.5-1.3-21c-0.7-6.1,3.6-27.7,6.9-40.3c1.3-4.8,2.4-8.3,3-9.1c0,0,0.1-0.1,0.1-0.1c2-1.8,0-12,0-12
	s4.8-27,4.3-29.3c-0.3-1.3,1.3-4.4,2.7-6.9c1.1-1.9,2-3.4,2-3.4s9.7,6.1,26.3,19.5l1.5,1.2c17.5,14.3,18.5,43,18.5,43L214.9,357.5z"
	/>
<path class="st2" d="M169.3,371c-0.3,2,6,108.3,12.5,114.5L169.3,371z"/>
<path class="st13" d="M85,518.8c-7,4.4-12.3-7.2-16-20.5c-1.7-6.3-3-12.9-4-18.5c-0.4-2.1-0.7-4-0.9-5.7c-0.7-4.5-1-7.4-1-7.4
	l7.4-1.5l8.1-1.6l1,9.2l0.5,4.2c0,0,1.3,2.1,3,5.4C87.9,492,96.1,511.9,85,518.8z"/>
<path class="st13" d="M213.5,486.6l-1.8,8.6l-1.1,5.4l-0.1,0.3c0,0-21.9,29.6-28.9,17.4c-5.4-9.4,7.7-24.7,14.1-31.4
	c2-2.1,3.4-3.3,3.4-3.3l10.2,2.2L213.5,486.6z"/>
<path class="st11" d="M153.5,737.8c-2.4,2.4-30.5,0-30.5,0s-0.9-7,0-7.6c0.5-0.8,0.9-1.7,1.2-2.6c1.3-3.7,3-10,2.8-11.5
	c-0.3-2.1-0.1-10.6,5.6-10c0,0,7.5-15.3,15.8,3.5v4.5c-0.4,2.4-0.1,4.9,0.9,7.1c1.8,3.5,3.2,7.1,4.3,10.9
	C154.3,734.6,154.5,736.9,153.5,737.8z"/>
<path class="st14" d="M153.5,737.8c-2.4,2.4-30.5,0-30.5,0s-0.9-7,0-7.6c0.5-0.8,0.9-1.7,1.2-2.6c3.7-1.6,8.8-3.1,12.3-1.8
	c4.5,1.7,12.7,4.7,17,6.2C154.3,734.6,154.5,736.9,153.5,737.8z"/>
<path class="st2" d="M128.5,278c0.7,2.9,1.7,5.8,1.7,8.7c0.1,4-1.7,7.9-3.5,11.5c-2.1,4.1-4.5,8.5-3.8,13.1c0.4,1.7,0.9,3.4,1.5,5.1
	c1.6,5.4,1,11.1-1.4,16.1c-1.6,3.3-5,6.5-8.6,5.4c-0.3-3.5-0.7-7.4-2.4-10.4c-0.7-1.2-1.6-2.3-2.7-3.1c-2.6-2-6.2-2.4-8.5-4.7
	c-0.4-0.4-0.8-0.9-1.1-1.4c-1.1-1.9-1.6-4.2-1.4-6.4c0-0.3,0.1-0.7,0.1-1c0.5-2.4,1.3-4.8,2.4-7c0.6-1.3,1.3-2.7,1.9-4
	c1.5-3,2.8-6.1,3.8-9.3c6.1-2.3,11.8-4.1,11.8-4.1c3.3,5-3.9,13.7-3.9,13.7s0,0.3-0.1,0.8C124.9,299.6,128.1,288.4,128.5,278z"/>
<path class="st2" d="M143.5,240.3c-2.9,0.9-5.7,2.8-7,5.6c-1.4,3.1-0.7,6.7-1,10.1c-0.1,0.7-0.2,1.5-0.4,2.2
	c-1.2,4.2-5.1,7.1-6.7,11.1c-0.1,0.3-0.2,0.6-0.3,0.9c-0.4,1.6-0.5,3.2-0.2,4.8c-9.6-11.2-8.3-28.1,2.9-37.7
	c11.2-9.6,28.1-8.3,37.7,2.9c9.6,11.2,8.3,28.1-2.9,37.7c-1.2,1-2.5,1.9-3.8,2.7c1.1-3.4,2.3-6.7,3.2-10.2
	c2.2-8.1,2.5-17.4-2.6-24.1C158,240.6,150.5,238.3,143.5,240.3z"/>
<path class="st2" d="M195.8,321.3c-0.9,3.2-3.1,6.7-6.4,6.5c-1.6-0.1-3-1-4.6-1.2c-2.2-0.2-4.3,1.2-5.7,3c-1.2,1.9-2.3,3.9-3.2,5.9
	c-2.5,4.8-7.3,9.1-12.6,8.3l-0.5-0.1c-0.5-0.1-1.1-0.3-1.6-0.5c-4.8-2-7.4-8.1-7.2-13.6c0.2-6.2,2.8-12,3.6-18.2
	c0.8-5.7,0.1-11.4,0.7-17.1c0.2-1.9,0.5-3.7,1-5.6c2.9,5.6,7,6.2,8.9,6.2c1.1-1.9,2-3.4,2-3.4s9.7,6.1,26.3,19.5
	C196.9,314.6,196.6,318,195.8,321.3z"/>
<path class="st10" d="M158.1,210.6c5.2,1.9,9.6,5.7,14.9,7.1c1.7,0.3,3.5,0.8,5.2,1.3c6,2.4,8.2,9.6,9.3,16
	c2.1,11.5,3.6,23.8,11.2,32.6c1.4,1.6,2.9,3.1,3.6,5s-0.2,4.6-2.3,5c3.5,1.5,5.2,5.8,4.5,9.5s-3.4,6.8-6.6,8.8c-1.5,1-3.3,2-3.5,3.8
	c0,0.9,0.2,1.9,0.6,2.7c2.1,5.3,2.4,11.2,0.9,16.7c-0.9,3.2-3.1,6.7-6.4,6.5c-1.6-0.1-3-1-4.6-1.1c-2.2-0.2-4.3,1.2-5.7,3
	c-1.2,1.9-2.3,3.9-3.2,5.9c-2.5,4.8-7.3,9.1-12.6,8.3c-6.1-0.9-9.5-8-9.3-14.2c0.2-6.2,2.8-12,3.6-18.2c0.8-5.7,0.1-11.4,0.7-17.1
	c0.9-8.3,4.6-16,6.8-24.1s2.5-17.4-2.6-24.1c-4.5-5.7-12-8.1-19-6c-2.9,0.9-5.7,2.8-7,5.6c-1.7,3.8-0.3,8.3-1.4,12.3
	c-1.3,4.5-5.7,7.5-7,12c-1.5,5.4,2,10.9,2.1,16.5c0.1,4-1.7,7.9-3.5,11.5c-2.1,4.1-4.5,8.5-3.8,13.1c0.4,1.7,0.9,3.4,1.5,5.1
	c1.6,5.4,1.1,11.2-1.4,16.2c-1.6,3.3-5.1,6.5-8.6,5.4c-0.4-5-1.1-10.5-5-13.5c-2.6-2-6.2-2.4-8.6-4.7c-2-2.1-2.9-5-2.5-7.8
	c0.4-2.8,1.2-5.5,2.5-8.1c2.9-6.2,6.4-12.4,6.8-19.2c0.6-10.3-6-20.4-3.6-30.5c2-8.4,9.8-14.3,12.7-22.4c1.6-4.4,1.8-9.5,5-12.8
	c4.6-4.8,11.6-3.2,17.5-4.6c2.7-0.7,5-2.1,7.8-2.5C150.7,209,154.5,209.4,158.1,210.6z"/>
<path class="st2" d="M87.1,424c0,0,0,22.5,0,32.5c0,1.3,0,2.7-0.1,4.1c-0.3,9-1.7,18.4-1.7,18.4c-1.6-2.4-3.5-4.5-5.7-6.3
	c-4.8-3.8-8.9-3.3-11.9-1.6c-1.3,0.8-2.5,1.7-3.6,2.9c-0.7-4.5-1-7.4-1-7.4l7.4-1.5c0.9-1.5,2.4-2.7,4.1-3.1c6.5-1.3,9.8-63,9.8-63
	l-20-43.6v-2.1l6.8-10.8c11.3-9.8,14,4.3,14,4.3s2,38,2,39S87.1,424,87.1,424z"/>
<path class="st11" d="M85.1,421.8c0,0,0,22.5,0,32.5c0,1.3,0,2.7-0.1,4.1c-0.3,9-1.7,18.4-1.7,18.4c-14-19.8-23.9-1.4-23.9-1.4
	l-3.1-8.3c-1.2-1-2.2-2.2-3-3.6c-6.1-10.1-2.4-27.7-2.4-27.7c2.1-27.5,11.4-58.5,11.4-58.5V351l6.8-10.8c11.3-9.8,16,4.3,16,4.3
	s0,38,0,39S85.1,421.8,85.1,421.8z"/>
<path class="st2" d="M85,457.4c-0.3,9-1.7,18.4-1.7,18.4c-14-19.8-23.9-1.4-23.9-1.4l-3.1-8.3c-1.2-1-2.2-2.2-3-3.6
	C59.8,458.9,74.2,452.2,85,457.4z"/>
<path class="st11" d="M85,458.4c-0.3,9-1.7,18.4-1.7,18.4c-14-19.8-23.9-1.4-23.9-1.4l-3.1-8.3c-1.2-1-2.2-2.2-3-3.6
	C59.8,459.9,74.2,453.2,85,458.4z"/>
<path class="st15" d="M85,458.4c-0.3,9-1.7,18.4-1.7,18.4c-14-19.8-23.9-1.4-23.9-1.4l-3.1-8.3c-1.2-1-2.2-2.2-3-3.6
	C59.8,459.9,74.2,453.2,85,458.4z"/>
<path class="st2" d="M66.1,390.8c0,0,4.5,24.8,9,32S66.1,390.8,66.1,390.8z"/>
<path class="st2" d="M54.5,432.8c0,0,2.8,15,8.5,16.8S54.5,432.8,54.5,432.8z"/>
<path class="st2" d="M209.4,485.7l4.1,0.9l-1.8,8.6c-0.7-0.9-1.4-1.7-2.2-2.5c-3.7-3.5-8.5-5.6-13.7-5.9c-2.2-0.1-4.5,0-6.6,0.4
	c1-3.4,1.6-6.9,1.9-10.4c0.2-1.3,0-2.7-0.6-3.9c-2-2.8-3-28.3-3-28.3s1.8-13,2.8-15.5s-4.5-15.3-4.3-19.1c0.3-3.9,3.3-37.1,3.3-38.9
	s6.5-36,20-23l5.3,7.3l0.3,1.9l-21.6,25.3c0,0,18.8,97.3,16.5,101.8C209.6,484.9,209.5,485.3,209.4,485.7z"/>
<path class="st11" d="M232.1,464c-4.1,4.1-12.6,17.5-14.9,21.3l-0.6,1l-2,10c0,0-7-12-23.3-9c1-3.4,1.6-6.9,1.9-10.4
	c0.2-1.3,0-2.7-0.6-3.9c-2-2.8-3-28.3-3-28.3s1.8-13,2.8-15.5s-4.5-15.3-4.3-19.1c0.3-3.9,3.3-37.1,3.3-38.9s6.5-36,20-23l5.3,7.3
	l4,22.8l7.8,39.5c0,0,2,15.5,3.8,17.8S236.8,459.3,232.1,464z"/>
<path class="st2" d="M217.1,484.3l-0.6,1l-2,10c0,0-7-12-23.3-9c1-3.4,1.6-6.9,1.9-10.4C198.7,476.3,209.9,477.9,217.1,484.3z"/>
<path class="st11" d="M217.1,485.3l-0.6,1l-2,10c0,0-7-12-23.3-9c1-3.4,1.6-6.9,1.9-10.4C198.7,477.3,209.9,478.9,217.1,485.3z"/>
<path class="st15" d="M217.1,485.3l-0.6,1l-2,10c0,0-7-12-23.3-9c1-3.4,1.6-6.9,1.9-10.4C198.7,477.3,209.9,478.9,217.1,485.3z"/>
<path class="st2" d="M200.8,415c0,0,17-0.2,19.5,8.6S200.8,415,200.8,415z"/>
<path class="st2" d="M197.5,440c0,0,28.8-1.3,27.5,11.3S197.5,440,197.5,440z"/>
<path class="st2" d="M199.3,459.3c0,0,2.3-0.5,3.8,4.8S199.3,459.3,199.3,459.3z"/>
<path class="st2" d="M141.1,581.5c0,0,6.9-2,10,0S141.1,581.5,141.1,581.5z"/>
<path class="st2" d="M142.3,588.8c0,0,16.3,0.3,17.8,2S142.3,588.8,142.3,588.8z"/>
<g class="st16">
	<path d="M107.7,279.6c0.5-8.2-3.5-16.3-4-24.3c-0.5,8.1,3.6,16.2,4,24.5C107.6,279.7,107.7,279.6,107.7,279.6z"/>
	<path d="M126.8,293.1c-2.1,4.1-4.4,8.4-3.8,12.9c0.4-3.4,2.2-6.8,3.8-9.9c1.8-3.6,3.6-7.4,3.5-11.5c0-0.4,0-0.9-0.1-1.3
		C129.8,286.7,128.3,290,126.8,293.1z"/>
	<path d="M199.9,274.8c0.7,0.3,1.4,0.8,2,1.3c0.5-1,0.6-2.2,0.3-3.4c0,0,0-0.1,0-0.1C201.9,273.7,201,274.5,199.9,274.8z"/>
	<path d="M123.1,327.4c-1.6,3.3-5.1,6.5-8.6,5.4c-0.4-5-1.1-10.5-5-13.5c-2.6-2-6.2-2.4-8.5-4.7c-1.4-1.4-2.3-3.3-2.5-5.3
		c0,0.2-0.1,0.3-0.1,0.5c-0.4,2.9,0.6,5.7,2.5,7.8c2.4,2.3,5.9,2.7,8.5,4.7c4,3,4.7,8.6,5,13.5c3.5,1.1,7-2.1,8.6-5.4
		c1.7-3.5,2.5-7.4,2.2-11.3C125.1,322,124.3,324.8,123.1,327.4z"/>
	<path d="M204.4,284.3c-0.7,3.7-3.4,6.8-6.6,8.8c-1.5,1-3.3,2-3.5,3.8c0,0.7,0.1,1.4,0.3,2c0.8-1.1,1.9-2.1,3.2-2.7
		c3.2-2,5.9-5.1,6.6-8.8c0.2-1.1,0.2-2.2,0-3.3C204.4,284.1,204.4,284.2,204.4,284.3z"/>
	<path d="M195.8,316.3c-0.9,3.2-3.1,6.7-6.4,6.5c-1.6-0.1-3-1-4.6-1.1c-2.2-0.2-4.3,1.2-5.7,3c-1.2,1.9-2.3,3.9-3.1,5.9
		c-2.5,4.8-7.3,9.1-12.6,8.3s-8.7-6.5-9.3-12.1c0,0.3-0.1,0.6-0.1,0.9c-0.2,6.2,3.2,13.3,9.3,14.2c5.3,0.8,10.1-3.5,12.6-8.3
		c0.9-2.1,1.9-4.1,3.1-5.9c1.4-1.8,3.5-3.2,5.7-3c1.6,0.1,3,1.1,4.6,1.1c3.3,0.2,5.5-3.4,6.4-6.5c0.8-2.8,1.1-5.7,0.9-8.7
		C196.5,312.6,196.3,314.5,195.8,316.3z"/>
	<path d="M162.5,244.3c2.5,3.5,3.9,7.7,4,12c0.3-5.4-0.8-10.8-4-15.1c-4.5-5.7-12-8.1-19-6c-2.9,0.9-5.7,2.8-7,5.6
		c-1.7,3.8-0.3,8.3-1.4,12.3c-1.3,4.5-5.7,7.5-7,12c-0.4,1.4-0.5,2.9-0.3,4.4c0.1-0.5,0.1-0.9,0.3-1.4c1.2-4.5,5.6-7.5,7-12
		c1.2-4-0.3-8.5,1.4-12.2c1.3-2.8,4-4.7,7-5.6C150.5,236.2,158,238.6,162.5,244.3z"/>
</g>
<g class="st6">
	<circle id="c40b9370-e8cf-4f46-b0aa-8f4512275a8b" class="st17" cx="469.9" cy="547.5" r="80.2"/>
	<path id="_x32_e22f7a4-7c1b-458a-b567-b65e93177032" class="st18" d="M446.3,511.2c3.2,0,6.4,0.3,9.5,0.9c2.6,0.5,5.1,1.5,7.3,3
		c2,1.4,3.7,3.3,4.7,5.5c1.2,2.7,1.8,5.6,1.7,8.6c0.1,3.2-0.8,6.4-2.5,9.2c-1.9,2.6-4.4,4.7-7.4,6c4,1,7.6,3.4,10,6.8
		c4,6.4,4.4,14.4,1.2,21.2c-1.4,2.6-3.3,4.9-5.8,6.6c-2.5,1.7-5.3,3-8.3,3.8c-3.1,0.8-6.3,1.2-9.5,1.2h-35.2v-72.7H446.3z
		 M444.3,540.6c2.5,0.1,4.9-0.6,7-2c1.8-1.3,2.8-3.5,2.8-6.6c0.1-1.4-0.3-2.9-0.9-4.2c-0.6-1-1.4-1.9-2.4-2.5
		c-1.1-0.6-2.3-1.1-3.5-1.3c-1.4-0.2-2.7-0.4-4.1-0.3h-15v17L444.3,540.6z M445.2,571.4c1.5,0,3-0.1,4.5-0.5
		c1.3-0.3,2.6-0.8,3.8-1.5c1.1-0.7,2-1.7,2.6-2.9c0.7-1.5,1-3.1,1-4.7c0-3.7-1-6.4-3.2-8c-2.4-1.7-5.4-2.5-8.3-2.4h-17.4v20
		L445.2,571.4z M493.1,569.9c2.2,2.1,5.3,3.2,9.4,3.2c2.7,0.1,5.3-0.7,7.6-2.2c1.8-1.1,3.1-2.7,3.9-4.6h12.7
		c-2,6.3-5.2,10.8-9.4,13.5c-4.6,2.8-9.9,4.3-15.3,4.1c-3.8,0.1-7.6-0.6-11.2-2c-3.2-1.2-6.1-3.2-8.5-5.7c-2.4-2.5-4.2-5.5-5.3-8.8
		c-1.3-3.6-1.9-7.4-1.9-11.2c0-3.8,0.6-7.5,1.9-11c2.4-6.6,7.5-11.9,14-14.7c3.5-1.5,7.2-2.2,11-2.1c4.1-0.1,8.1,0.8,11.7,2.6
		c3.2,1.7,6,4.1,8.2,7c2.2,3,3.8,6.4,4.6,10c1,3.8,1.3,7.8,1,11.7h-38C489.7,564.4,490.9,567.8,493.1,569.9L493.1,569.9z
		 M509.5,542.2c-1.7-1.9-4.4-2.8-7.9-2.8c-2-0.1-4,0.3-5.8,1.2c-1.4,0.7-2.7,1.7-3.7,2.9c-0.9,1.1-1.5,2.3-1.9,3.7
		c-0.3,1.1-0.6,2.3-0.7,3.5H513C512.4,546.9,511.2,544.1,509.5,542.2L509.5,542.2z M487,514.9h29.4v8.2H487V514.9z"/>
</g>
<g class="st6">
	<path class="st19" d="M832.3,594.5c0,0.8,0,1.5,0,2.3c-1.1,39.7-31.1,72.6-70.5,77.3c-3.2,0.4-6.4,0.6-9.7,0.6
		c-44.3,0-80.2-35.9-80.2-80.2c0-44.3,35.9-80.2,80.2-80.2C796.4,514.3,832.3,550.2,832.3,594.5
		C832.3,594.5,832.3,594.5,832.3,594.5L832.3,594.5z"/>
	<path class="st20" d="M832.2,596.8c-1.1,39.7-31.1,72.6-70.5,77.3l-65.5-48.7l8.2-53l32.4,2l18.4,15.4l13.1-21.3l22,18.3l11.8,8.5
		v-26.7l29.8,27.6C832,596.3,832.2,596.6,832.2,596.8z"/>
	<polygon class="st20" points="696.3,625.4 696.3,625.4 696.3,625.4 	"/>
	<path class="st18" d="M746.3,596.5c0-17-10.5-28.5-30.3-28.5h-19.7v57.2h20.1C735.7,625.2,746.3,613.5,746.3,596.5z M732.1,596.6
		c0,12.3-6.3,17.6-16.4,17.6h-5.2V579h5.2C725.4,579,732.1,584.5,732.1,596.6z M802.8,625.2V568h-13.2v32l-21.1-32h-13.8v57.2H768
		v-34.2l22.5,34.2L802.8,625.2L802.8,625.2z"/>
</g>
<linearGradient id="SVGID_2_" gradientUnits="userSpaceOnUse" x1="679.0866" y1="141.1434" x2="679.0866" y2="684.5005" gradientTransform="matrix(1 0 0 -1 -58.95 662.5601)">
	<stop  offset="0" style="stop-color:#808080;stop-opacity:0.25"/>
	<stop  offset="0.54" style="stop-color:#808080;stop-opacity:0.12"/>
	<stop  offset="1" style="stop-color:#808080;stop-opacity:0.1"/>
</linearGradient>
<path class="st21" d="M772,509.2c-1-2-10.3-15.4-10.3-15.4l0,0l-0.3-1.2l-3.1-13.7l-0.2-1c2-0.5,3.4-1.1,3.9-1.9
	c2.2-3.8-1.9-8.5-1.9-8.5l-0.8-20.2l-2.2-49c0,0-4.6-16.4-5.3-20.2c-0.7-3.8-6.9-11.9-6.9-11.9s1.3-4-0.3-6.9s-5.4-16.2-5.4-16.2
	l-3.2-37l-1.5-36.4c1.5,0,3.1,0.1,4.6,0.4c0.2,0.2,0.1-0.3-0.2-1.1c0.1,0,0.2,0,0.2,0.1c0.5,0.4-0.9-2.7-2.4-5.9l-0.2-0.4
	c0.7-2.6,3.7-13.2,5.8-17c1.5-2.8-1.4-22.3-3.7-35.6c-0.2-1-0.3-1.9-0.5-2.7c3.7-6.4,7.9-13.7,7.9-13.7s10.7-30.4,15.1-43.7
	s0-47.5,0-47.5l0,0c0,0,0-1.7-0.2-4.3c-0.7-7.1-3.3-20.9-13.5-26.3C733.4,64.6,729,55.6,729,55.6s-17.3-15.8-19.5-10.5l-0.2-0.3
	c-1.3-2.6-2.2-5.4-2.8-8.3c-0.1-0.3-0.1-0.6-0.2-0.9c2.2-1.7,4.1-3.8,5.7-6.2c0,0.4-0.1,0.9-0.1,1.3l0,0c0,0.3,0,0.6,0,0.8V32
	c0,0.2,0,0.4,0,0.6c0,0.1,0,0.2,0,0.3c1.3,0.1,2.6-0.6,3.2-1.8c0.5-1.2,0.9-2.4,1.1-3.7c0.6-2.7,1.7-5.3,3.2-7.6
	c1.5-2.3,3.5-4.6,3.7-7.1c0-0.4,0-0.8,0-1.1c-0.1-1.3-0.8-2.6-0.9-3.9c-0.1-0.7-0.1-1.3,0-2l0,0c0-0.4,0.1-0.8,0.2-1.2
	s0.2-1,0.2-1.6s0.1-0.9,0.2-1.3V1.7c0.1-1.2,0.1-2.3,0-3.5c-0.2-2.2-1.4-4.1-3.2-5.2c-1-0.5-2.2-0.7-3.2-1.2c-2.6-1.3-3.5-4.6-5-7.1
	c-2.2-3.4-5.9-5.5-9.9-5.7c-4-0.2-7.9,1.6-11.8,1c-2.5-0.4-4.8-1.8-7.4-1.9c-3.7-0.3-7,2-10.1,4.2c-2.1,1.5-4.4,3.3-5.1,5.8
	c-0.6,2.1,0,4.4-1.2,6.2c-0.8,1.2-2.1,1.8-3,3c-0.7,0.9-1,2.1-1,3.2c0,0.1,0,0.2,0,0.3s0,0.4,0,0.5c0.1,0.8,0.2,1.6,0.3,2.3
	c0,0.1,0,0.2,0,0.2l0,0c0.3,2.1-0.4,3.6-1.1,5.7c-0.3,0.9-0.5,1.8-0.5,2.7c0,0,0,0.1,0,0.1s0,0.1,0,0.2c0,0.2,0,0.4,0,0.6l0,0
	c0.1,0.7,0.4,1.4,0.9,1.9c0.2-0.4,0.6-0.8,1-1c0,0.3,0,0.6,0,0.9V15c0,7.1,2.9,13.9,8,18.9c0,0.3-0.1,0.6-0.1,0.9
	c-0.4,3-1,6.3-1.7,9.5l-0.2,1h-5c0,0,0.8-3.7-7.5,0.8s-18.5,6.7-20,7.5S615.6,69,615.6,69s-16.3,9.4-15.8,25.4l0,0l-1.9,18
	l-1.3,33.6c0,0-2.5,28.6,0,32.6s6.9,27.8,6.1,30.8c-0.6,2.2,5.5,17.5,9.8,26.4c-1.1,1.2-2.2,2.5-3.2,3.8c0,0-1.7,6.7-1.7,7.4
	c0,0,0,0.1,0.1,0.1c-3.8,3.8-9.7,10-9.7,11.4c0,2,1.2,3.8-0.7,3.6s-1.9,2.1-1.8,3.4s-2.3-0.7-2.1,1.8s-17.3,41.8-17.3,41.8
	s-8,19.2-11,22.4c-3,3.2-7.3,17.2-6.9,22.4s0.5,6.7-0.8,6.7s-4.1,4.7-4.1,4.7L540,406.7c0,0-3.9,12.7-5.1,12.5
	c-1.2-0.2-3.8,21.8-3.8,21.8s-2.9,6.5-3.4,6.5c-0.1,0,0.4,0.5,1.2,1.2l-0.6,0.5c-1.3,1.1-2.6,2.1-4,3c0,0-7.7-5.3-13-4.8
	s-16.1,1.8-21.5-2c-3-2.1-9.3-4-14.4-4.1c-4.1-0.1-7.3,1-7.6,4.1c-0.5,6.8,18.5,19.7,18.5,19.7s20,5.7,23.9,11s19.9,13.4,19.9,13.4
	s4.8-2.1,6.6-4.3l0,0c0.4-0.4,0.7-1,0.7-1.6c-0.3-2.5,6.6-12,6.6-12l1-4.7c0.5-2.3,1.1-5.2,1.7-7.7c0.1-0.3,0.2-0.7,0.2-1
	c0.8,0,1.6-0.1,2.3-0.4c6.8-2.7,7.5-10,7.5-10l10.1-21.2c0,0,4.4-12.2,5.8-14.4c1.3-2.2,11.8-24.1,11.8-24.1s1.9-9.4,3.6-12.2
	c1.7-2.8,1.9-9,1.9-9s3.5-9.4,7.3-13c2.7-2.9,5-6.1,6.9-9.5c0,0,15.4-24.3,25.9-31.1c0,0,25.2-30.8,26.8-33.5s6.3-9.7,12-3.3
	c5.7,6.3,11.8,14.6,11.8,14.6l10.3,28.1l11.5,36c0,0,5.4,8.7,5.1,10.5c-0.3,1.8,8.8,18.2,8.8,18.2s3.5,6,2.9,9s2.5,6,2.5,6l1,12.2
	c0,0,3.7,12,2.7,13.9s3.6,13.4,3.6,13.4s0,10.2,1.7,13.5s3.7,16.7,3.6,17.7s0,10.2,0,10.2s1.2,0,3.1-0.1l0.1,1l0.8,10.1l0.1,0.9
	c-0.9,0.7-1.5,1.8-1.5,2.9c0,2.7,0.4,10.7,0.7,17c0.1,1.7,0.2,3.2,0.3,4.5c0.1,1.8,1.7,3.2,3.5,3.1c0.1,0,0.1,0,0.2,0
	c4.8-0.6,9.7-0.4,14.5,0.5c5.3,1.2,10.7,1.6,16.1,1.2c0,0,0.4-3.8,0.4-7.2C772.5,511.9,772.4,510,772,509.2z"/>
<polygon class="st22" points="759,494.3 736.2,494.3 736,491.6 735.2,481.5 734.5,473.9 754.5,473.9 755.8,479.5 758.8,493.1 "/>
<path class="st22" d="M549.2,453.9c-0.4,0.4-1.1,3-1.9,6c-1.3,5.4-2.6,12.3-2.6,12.3l-0.8,0.2l-17.8,4.3c0,0-9.3-21.3-5-21.8
	c1.5-0.3,3-1,4.2-1.9c1.4-0.9,2.8-2,4.1-3.1c2.4-2,4.2-3.9,4.2-3.9S550.4,452.8,549.2,453.9z"/>
<path class="st2" d="M549.2,453.9c-0.4,0.4-1.1,3-1.9,6c-6.2-0.4-15.5-7.7-18-10c2.4-2,4.2-3.9,4.2-3.9S550.4,452.8,549.2,453.9z"/>
<path class="st2" d="M755.7,479.5c-5.5,1.5-15.5,1.9-20.6,2.1l-0.6-7.6h20L755.7,479.5z"/>
<path class="st23" d="M610.7,245.6c0,0-12.5,12.3-12.5,14.3s1.2,3.7-0.7,3.6c-1.8-0.1-1.9,2-1.8,3.4s-2.2-0.7-2.1,1.8
	s-17,41.7-17,41.7s-7.8,19.2-10.8,22.3s-7.2,17.2-6.8,22.3s0.5,6.7-0.8,6.7s-4,4.7-4,4.7l-13.2,41c0,0-3.8,12.7-5,12.5
	c-1.2-0.2-4,21.8-4,21.8s-2.8,6.5-3.3,6.5s14.5,13,21.2,10.3s7.3-10,7.3-10l10-21c0,0,4.3-12.2,5.7-14.3s11.7-24,11.7-24
	s1.8-9.3,3.5-12.2s1.8-9,1.8-9s3.5-9.3,7.2-13c2.6-2.9,4.9-6.1,6.8-9.5c0,0,15.2-24.2,25.5-31c0,0,24.8-30.7,26.3-33.3
	s6.2-9.7,11.8-3.3s11.7,14.5,11.7,14.5l10.2,28l11.3,35.8c0,0,5.3,8.7,5,10.5c-0.3,1.8,8.7,18.2,8.7,18.2s3.5,6,2.8,9s2.5,6,2.5,6
	l1,12.2c0,0,3.7,12,2.7,13.8s3.5,13.3,3.5,13.3s0,10.2,1.7,13.5s3.7,16.7,3.5,17.7s0,10.2,0,10.2s25.2-0.2,27.3-4s-1.8-8.5-1.8-8.5
	l-0.8-20.2l-2.2-48.8c0,0-4.5-16.3-5.2-20.2s-6.8-11.8-6.8-11.8s1.3-4-0.3-6.8c-1.7-2.8-5.3-16.2-5.3-16.2l-3.2-36.8l-1.6-40.2
	L610.7,245.6z"/>
<path class="st2" d="M736.7,271.4c-1-0.8-42-1.2-42.5-1.2s-16-6.2-16-6.2s-34.5-5.7-39.8-3.2s-21.8-4.7-21.8-4.7v-3.2
	c0,0-8.8-3-8.8-3.7s1.7-7.3,1.7-7.3l1-0.4l3.8-1.3l117.2,18.8c0,0,1.5,3.2,3,6.3C735.8,268.7,737.2,271.9,736.7,271.4z"/>
<path class="st24" d="M736.7,270.4c-1-0.8-42-1.2-42.5-1.2s-16-6.2-16-6.2s-34.5-5.7-39.8-3.2s-21.8-4.7-21.8-4.7v-3.2
	c0,0-8.8-3-8.8-3.7s1.7-7.3,1.7-7.3l1-0.4l3.8-1.3l117.2,18.8c0,0,1.5,3.2,3,6.3C735.8,267.7,737.2,270.9,736.7,270.4z"/>
<path class="st2" d="M545.6,466.6l-1,4.7c0,0-0.3,0.5-0.8,1.2l-17.8,4.3c0,0-9.3-21.3-5-21.8c1.5-0.3,3-1,4.2-1.9
	c-0.9,6.7,4.3,13.7,4.3,13.7C536.9,472.3,545.6,466.6,545.6,466.6z"/>
<path class="st12" d="M545.6,467.6l-1,4.7c0,0-6.8,9.5-6.5,12c0,0.6-0.2,1.2-0.7,1.6l0,0c-1.8,2.1-6.5,4.2-6.5,4.2
	s-15.7-8-19.5-13.3s-23.5-11-23.5-11s-18.7-12.8-18.2-19.7c0.2-3,3.5-4.1,7.5-4.1c5,0.1,11.2,1.9,14.2,4.1c5.3,3.8,16,2.5,21.2,2
	s12.8,4.8,12.8,4.8c-1.7,7,4.1,14.8,4.1,14.8C536.9,473.3,545.6,467.6,545.6,467.6z"/>
<path class="st24" d="M537.5,485.9L537.5,485.9c-1.8,2.1-6.5,4.2-6.5,4.2s-15.7-8-19.5-13.3s-23.5-11-23.5-11s-18.7-12.8-18.2-19.7
	c0.2-3,3.5-4.1,7.5-4.1c3,5,7.4,12,10.7,13.9c5.3,3.2,15.8,9.2,15.8,9.2s16.7,10.5,17.8,11.7C522.6,477.7,532.3,484.1,537.5,485.9z"
	/>
<path class="st2" d="M759,494.3h-22.9l-0.2-2.7c2.9-2.7,9-4,9-4c4.3-1.3,12.2,4.3,13.7,5.5L759,494.3z"/>
<path class="st12" d="M769.6,514.5c-0.1,3.4-0.4,7.1-0.4,7.1c-5.3,0.4-10.6,0-15.8-1.2c-4.7-1-9.5-1.1-14.2-0.5
	c-1.8,0.2-3.4-1.1-3.6-2.9c0-0.1,0-0.1,0-0.2c-0.1-1.3-0.2-2.8-0.2-4.5c-0.3-6.2-0.7-14.2-0.7-16.9c0-4.7,10.5-6.8,10.5-6.8
	c4.8-1.5,14,5.7,14,5.7s9.2,13.3,10.2,15.3C769.6,510.4,769.7,512.4,769.6,514.5z"/>
<path class="st24" d="M769.6,514.5c-0.1,3.4-0.4,7.1-0.4,7.1c-5.3,0.4-10.6,0-15.8-1.2c-4.7-1-9.5-1.1-14.2-0.5
	c-1.8,0.2-3.4-1.1-3.6-2.9c0-0.1,0-0.1,0-0.2c-0.1-1.3-0.2-2.8-0.2-4.5c3.8-0.6,9.5-1.1,13.4-0.2
	C753.3,513.2,763.8,514.1,769.6,514.5z"/>
<path class="st2" d="M541.9,414.4c0,0-3.5,6,0,8.8S541.9,414.4,541.9,414.4z"/>
<path class="st2" d="M729.9,437.6c1,2,3.7,5,3.2,8.5S729.9,437.6,729.9,437.6z"/>
<path class="st22" d="M726.9,71.9c0,0-15.3-1.6-31.1-3.6l-0.7-0.1c-18.4-2.4-37.2-5.6-33.6-7.9c1.6-1,3-3.5,4.1-6.7
	c0.7-2,1.3-4.1,1.8-6.3l0,0c0.1-0.3,0.2-0.7,0.2-1c0.7-3.1,1.2-6.4,1.7-9.4c0.8-6.1,1.2-10.9,1.2-10.9s39.2-14.8,34.3,3.7
	c-0.7,3-0.8,6.1-0.1,9.1c0.6,2.9,1.5,5.7,2.8,8.3C713.8,60.3,726.9,71.9,726.9,71.9z"/>
<path class="st2" d="M704.9,29.6c-0.7,3-0.8,6.1-0.1,9.1c-10.5,8.5-25.8,7.8-35.4-1.8c0.8-6.1,1.2-10.9,1.2-10.9
	S709.7,11.1,704.9,29.6z"/>
<path class="st22" d="M714.5,17.1c0,14.6-11.8,26.5-26.5,26.5c-14.6,0-26.5-11.8-26.5-26.5l0,0v-0.1c0-14.6,11.9-26.5,26.5-26.5
	S714.5,2.4,714.5,17.1z"/>
<path class="st2" d="M696.1,67.2c-0.1,0.4-0.2,0.7-0.3,1.1l-0.7-0.1c-18.4-2.4-37.2-5.6-33.6-7.9c1.6-1,3-3.5,4.1-6.7
	c0.7-2,1.3-4.1,1.8-6.3l0,0c0.1-0.3,0.2-0.7,0.2-1h0.8c0.1,0.4,2,13.2,19.2,15.4l0.6,0.1C694.9,62.5,696.6,64.7,696.1,67.2z"/>
<path class="st24" d="M695.1,68.2c-0.8,4.1-7.9,9.1-7.9,9.1l-19.7-3.7c0,0-12.3-11-12.3-11.3s7.3-15,7.3-15h4.9
	c0.1,0.4,2,13.2,19.2,15.4l0.6,0.1C693.9,63.5,695.6,65.7,695.1,68.2z"/>
<path class="st2" d="M726.9,71.9c0,0-15.7-1.6-31.8-3.7c-0.8,4.1-7.9,9.1-7.9,9.1l-19.7-3.7c0,0-12.3-11-12.3-11.3s7.3-15,7.3-15
	h0.3c0.6,2.2,1.6,4.3,2.9,6.3c3.1,4.7,9,9.9,20,9.2l0.9-0.1c16.5-1.4,20.2-12.8,20.9-15.7C713.8,60.3,726.9,71.9,726.9,71.9z"/>
<path class="st2" d="M734.3,264.6l-0.3,1.2c-4-3-33.2-5-33.2-5s-7.7-0.9-15-2.1c-5.3-0.8-10.5-1.8-12.3-2.8
	c-0.4-0.2-0.9-0.4-1.3-0.5c-6.6-2.1-27-4.5-27-4.5s-10,4.5-15.3,2.5s-20.5-11.3-20.5-11.3s0.3-0.5,1-1.4l3.8-1.3l117.2,18.8
	C731.3,258.3,732.9,261.4,734.3,264.6z"/>
<path class="st12" d="M736.2,211.9c2.2,13.3,5.1,32.6,3.6,35.5c-2.3,4.3-5.8,17.5-5.8,17.5c-4-3-33.2-5-33.2-5s-7.7-0.9-15-2.1
	c-5.3-0.8-10.5-1.8-12.3-2.8c-0.4-0.2-0.9-0.4-1.3-0.5c-6.6-2.1-27-4.5-27-4.5s-10,4.5-15.3,2.5s-20.5-11.3-20.5-11.3
	c2.2-3,4.7-5.7,7.5-8.2c5.2-4.7,14.7-44.8,14.4-45.3s-2.6-13.3-1.9-20.8s-2-44.2-2-44.2s-26.8-10.4-27.3-26.4s15.5-25.3,15.5-25.3
	s18.5-14.5,20-15.3s11.5-3,19.7-7.5s7.3-0.8,7.3-0.8s3.3,17.7,23.2,16.5s22-16.5,22-16.5c2.1-5.3,19.2,10.5,19.2,10.5s4.3,9,18,16.3
	c10,5.4,12.6,19.2,13.3,26.2c0.3,2.6,0.2,4.3,0.2,4.3l-40.2,28.8l15.8,65.8C734,199.3,735,204.6,736.2,211.9z"/>
<path class="st22" d="M636.9,246.1c0,0,13.2,22.7,26.8,16.3c3.1-1.4,5.6-3.7,7.3-6.7c5.4-9.3,0-21.2-10.4-24c-3.8-1-8-1.6-11.4-1
	C639.7,232.4,636.9,246.1,636.9,246.1z"/>
<path class="st2" d="M636.9,246.1c0,0,13.2,22.7,26.8,16.3c3.1-1.4,5.6-3.7,7.3-6.7c5.4-9.3,0-21.2-10.4-24c-3.8-1-8-1.6-11.4-1
	C639.7,232.4,636.9,246.1,636.9,246.1z"/>
<path class="st2" d="M617.5,80.6c0,0,10.4,7,10.6,18L617.5,80.6z"/>
<path class="st2" d="M633.9,85.9c0,0.7-3,47,2.3,62.8S633.9,85.9,633.9,85.9z"/>
<path class="st2" d="M714.5,17.1c0,5.1-1.5,10.2-4.3,14.5c0-0.3,0-0.7,0-1c-0.2-2.8-1.6-5.3-3.1-7.7c-1-1.9-2.3-3.6-4-4.9
	c-0.5-0.3-0.9-0.6-1.3-1c-0.9-1-0.8-2.6-1-4c-0.5-3.8-3.4-6.8-7.2-7.5c-0.8-0.2-1.6-0.1-2.2,0.3c-0.7,0.5-1,1.4-1.6,1.9
	c-0.9,0.8-2.3,0.7-3.5,0.5c-2.6-0.5-5.3-1.5-7.9-0.6c-4.4,1.4-6,7.5-10.5,8.6c-1.3,0.2-2.7,0.3-4,0.3c-0.9,0.1-1.7,0.3-2.4,0.8v-0.1
	c0-14.6,11.9-26.5,26.5-26.5S714.5,2.4,714.5,17.1L714.5,17.1z"/>
<path class="st25" d="M661.8-0.5c0.8-1.1,2.2-1.8,2.9-2.9c1.1-1.8,0.6-4.2,1.1-6.2c0.7-2.5,2.9-4.2,5-5.8c3-2.2,6.3-4.4,9.9-4.2
	c2.5,0.2,4.8,1.5,7.3,1.9c3.9,0.6,7.8-1.1,11.7-1c4,0.2,7.6,2.3,9.7,5.7c1.5,2.5,2.4,5.7,5,7c1,0.5,2.1,0.7,3.1,1.2
	c1.8,1.1,3,3.1,3.2,5.2c0.1,2.1,0,4.2-0.4,6.3c-0.2,1-0.2,2.1-0.1,3.2c0.2,1.3,0.8,2.5,0.9,3.8c0.3,3-2,5.6-3.7,8.2
	c-1.5,2.3-2.5,4.9-3.1,7.5c-0.2,1.3-0.5,2.5-1.1,3.6c-0.6,1.2-1.8,1.9-3.1,1.8c-0.2-1.8,0.3-3.6,0.1-5.5c-0.2-2.8-1.6-5.3-3.1-7.7
	c-1-1.9-2.3-3.6-4-4.9c-0.5-0.3-0.9-0.6-1.3-1c-0.9-1-0.8-2.6-1-4c-0.5-3.8-3.4-6.8-7.2-7.5c-0.8-0.2-1.6-0.1-2.2,0.3
	c-0.7,0.5-1,1.4-1.6,1.9c-0.9,0.8-2.3,0.7-3.5,0.5c-2.6-0.5-5.3-1.5-7.9-0.6c-4.4,1.4-6,7.5-10.5,8.6c-1.3,0.2-2.7,0.3-4,0.3
	c-1.4,0-2.7,0.7-3.4,1.8c-1.3-1.4-1.1-3.7-0.4-5.5c0.8-2.1,1.5-3.6,1.1-5.9S660.3,1.4,661.8-0.5z"/>
<path class="st2" d="M564.4,363.1c0,0-9.5,5-4.5,6S564.4,363.1,564.4,363.1z"/>
<path class="st2" d="M720.9,375.1c0,0,5.3-7,11-2.8S720.9,375.1,720.9,375.1z"/>
<path class="st2" d="M733.1,379.6c0,0,6.5-2.3,10.5,0H733.1z"/>
<path class="st2" d="M603.7,266.1c0,0,14,13.5,18.5,14S603.7,266.1,603.7,266.1z"/>
<path class="st2" d="M605.7,88.6l-3.6,7.7l-1.8,18l-1.3,33.5c0,0-2.5,28.5,0,32.5s6.8,27.7,6,30.7s11,31,13.2,32.7s9.8,2,14.2,1.2
	l7.9,7.5l22.4-20.7l-13.8-10.5c0,0,3.2-5.3-5.7-11.2c0,0-4-6.7-4.2-10.2c-0.2-7.1-1.4-14.2-3.7-21c-3.2-9.3-5-61.2-5-61.2
	S622.7,79.8,605.7,88.6z"/>
<path class="st12" d="M603.7,88.6l-3.6,7.7l-1.8,18l-1.3,33.5c0,0-2.5,28.5,0,32.5s6.8,27.7,6,30.7s11,31,13.2,32.7s9.8,2,14.2,1.2
	l7.9,7.5l22.4-20.7l-13.8-10.5c0,0,3.2-5.3-5.7-11.2c0,0-4-6.7-4.2-10.2c-0.2-7.1-1.4-14.2-3.7-21c-3.2-9.3-5-61.2-5-61.2
	S620.7,79.8,603.7,88.6z"/>
<path class="st2" d="M638.5,213.9c-1,0.5-21.2,19.2-13.7,19.7S638.5,213.9,638.5,213.9z"/>
<path class="st22" d="M664.2,236.4c0,0-28.8,3-27.3,14.7c1.5,11.7,22,22.9,28.5,19.4c6.5-3.5,12-6.9,12-6.9L664.2,236.4z"/>
<path class="st2" d="M752.2,96.6l4.2,8c0,0,4.3,34.2,0,47.3s-14.8,43.5-14.8,43.5s-12.7,22.2-13,23.2s-24.3,35.7-28.7,37.5
	c-4.3,1.8-12.5,0.9-13-1.1c-0.5-2-11.5,8.6-11.5,8.6s-21.2-25.6-17.8-28.3s13.6-3.3,13.6-3.3s0.8,2.5,1.6-2.7s4.7-7.8,7.5-7.5
	s1.7-2.7,2.2-5.8s8.3-8.8,8.3-8.8s3.8-6.2,3.8-9.8s8-6.8,8.7-6.8s0.5-1.5,0.5-6.8s4-14.8,4-14.8l2.5-30l4.3-30.5
	C714.5,108.3,726.4,71.1,752.2,96.6z"/>
<path class="st2" d="M734,199.3c0,0,1,5.4,2.2,12.5c-2,3.6-3.6,6.5-3.7,6.8c-0.3,1-24.3,35.7-28.7,37.5c-4.3,1.8-12.5,0.9-13-1.1
	c-0.2-0.9-2.5,0.7-5,2.7c-3.1,2.6-6.5,5.9-6.5,5.9s-3.4-4.1-7.2-9.1c-5.8-7.6-12.7-17.5-10.7-19.2c3.4-2.7,13.6-3.3,13.6-3.3
	s0.8,2.5,1.6-2.7s4.7-7.8,7.5-7.5s1.7-2.7,2.2-5.8s8.3-8.8,8.3-8.8s3.8-6.2,3.8-9.8s8-6.8,8.7-6.8s0.5-1.5,0.5-6.8s4-14.8,4-14.8
	l2.5-30l4.3-30.5c0,0,11.8-37.2,37.7-11.7l1.9,3.7c0.3,2.6,0.2,4.3,0.2,4.3l-40.2,28.8L734,199.3z"/>
<path class="st12" d="M754.2,96.6l4.2,8c0,0,4.3,34.2,0,47.3s-14.8,43.5-14.8,43.5s-12.7,22.2-13,23.2s-24.3,35.7-28.7,37.5
	c-4.3,1.8-12.5,0.9-13-1.1c-0.5-2-11.5,8.6-11.5,8.6s-21.2-25.6-17.8-28.3s13.6-3.3,13.6-3.3s0.8,2.5,1.6-2.7s4.7-7.8,7.5-7.5
	s1.7-2.7,2.2-5.8s8.3-8.8,8.3-8.8s3.8-6.2,3.8-9.8s8-6.8,8.7-6.8s0.5-1.5,0.5-6.8s4-14.8,4-14.8l2.5-30l4.3-30.5
	C716.5,108.3,728.4,71.1,754.2,96.6z"/>
<path class="st2" d="M679.9,230.5c0,0,1,2.3,5.5,3.1S679.9,230.5,679.9,230.5z"/>
<path class="st2" d="M733.7,96.8c-0.2,0.5-15,17.3-12,21.6S733.7,96.8,733.7,96.8z"/>
<path class="st2" d="M716.9,173.8c0,0,8.5,8.3,6.8,12.3S716.9,173.8,716.9,173.8z"/>
<path class="st2" d="M718.2,157.9c0.5,0.8,18.8,3,19.8,10C739,174.9,718.2,157.9,718.2,157.9z"/>
<g class="st16">
	<path d="M720,8c0-0.4,0.1-0.8,0.2-1.2c0.4-1.9,0.5-3.8,0.5-5.8c-0.1,1.3-0.3,2.5-0.5,3.8C720,5.9,720,7,720,8z"/>
	<path d="M661.2,6.1c0.1-0.7,0.1-1.5,0-2.2c-0.1-0.7-0.3-1.4-0.3-2.1c-0.1,1.4,0,2.8,0.3,4.1V6.1z"/>
	<path d="M720.9,13.5c-0.4,2.4-2.2,4.5-3.6,6.6c-1.5,2.3-2.5,4.9-3.1,7.5c-0.2,1.3-0.5,2.5-1.1,3.6c-0.6,1.2-1.8,1.9-3.1,1.8
		c0,0,0-0.1,0-0.1c-0.1,0.7-0.1,1.4,0,2.1c1.3,0.1,2.5-0.6,3.1-1.8c0.5-1.2,0.9-2.4,1.1-3.6c0.6-2.7,1.6-5.2,3.1-7.5
		c1.7-2.6,4-5.2,3.7-8.2C721,13.8,721,13.6,720.9,13.5z"/>
	<path d="M710.2,27.6c-0.2-2.8-1.6-5.3-3.1-7.7c-1-1.9-2.3-3.6-4-5c-0.5-0.3-0.9-0.6-1.3-1c-0.9-1-0.8-2.6-1-4
		c-0.5-3.8-3.4-6.8-7.2-7.5c-0.8-0.2-1.6-0.1-2.2,0.3c-0.7,0.5-1,1.4-1.6,1.9c-1,0.7-2.3,0.9-3.5,0.5c-2.6-0.5-5.3-1.5-7.9-0.6
		c-4.4,1.4-6,7.5-10.5,8.6c-1.3,0.2-2.7,0.3-4,0.3c-1.4,0-2.6,0.7-3.4,1.8c-0.5-0.5-0.8-1.1-0.9-1.8c-0.3,1.3,0,2.7,0.9,3.8
		c0.8-1.1,2.1-1.8,3.4-1.8c1.3,0,2.7-0.1,4-0.3c4.5-1.1,6.1-7.2,10.5-8.6c2.5-0.8,5.3,0.1,7.9,0.6c1.2,0.4,2.4,0.2,3.5-0.5
		c0.6-0.6,0.9-1.4,1.6-1.9c0.7-0.4,1.5-0.5,2.2-0.3c3.8,0.7,6.6,3.7,7.2,7.5c0.2,1.4,0.1,2.9,1,4c0.4,0.4,0.9,0.7,1.3,1
		c1.7,1.4,3,3.1,4,5c1.4,2.3,2.8,4.8,3,7.5C710.2,28.8,710.2,28.2,710.2,27.6z"/>
</g>
<path class="st26" d="M381.5,113.5v104.9c0,0.9,0.7,1.7,1.6,1.7c0,0,0,0,0.1,0c28.9-0.9,53-24.8,53-54.1s-24.1-53.3-53-54.1
	C382.3,111.8,381.6,112.6,381.5,113.5C381.5,113.5,381.5,113.5,381.5,113.5z"/>
<path class="st27" d="M309.4,256.9V170c-0.1-13.9,4.3-27.4,12.7-38.5c7.9-10.3,20.1-19.7,38.6-19.6c1,0,1.9,0.8,1.9,1.9c0,0,0,0,0,0
	v89.4c0,0,3,48.9-52.2,54.6C309.9,257.8,309.4,257.4,309.4,256.9C309.4,256.9,309.4,256.9,309.4,256.9z"/>
<circle class="st0" cx="82" cy="70.6" r="31.5"/>
<circle class="st0" cx="16" cy="-4.4" r="19.5"/>
<circle class="st0" cx="-86" cy="39.1" r="12"/>
<path class="st1" d="M311.9,638.6c-1,1.3-1.7,2.8-2.3,4.3c-0.1,0.4-0.3,0.8-0.4,1.2c-0.3-0.1-0.5-0.2-0.8-0.3
	c-1.2-0.3-2.4-0.4-3.6-0.3c0-0.5,0.1-1,0.1-1.5c0.1-5.3-0.5-12.6-5.5-9.5c-4.8,3-1.4,8,1.7,11.2l0.8,0.8c-2.8,2-3.4,6.7-3.9,11.6
	s-4.6,10.3-7.4,13.3c-0.3,0.3-0.5,0.6-0.8,0.8c-2.3-1.8-5.2-2.6-8-2.1c-0.1-0.4-0.2-0.9-0.4-1.4c-2.2-8.1-6.9-22.1-12.8-25.1l0.8-1
	c2.5-3.3,5.4-8.2,1.2-9.5s-4.6,4.3-4.3,8.4c0,0.5,0.1,1,0.1,1.5c-1.7,0.1-3.3,0.9-4.4,2.1l-0.6-0.8c-3.4-4-9.6-10.4-11.5-5.6
	c-1.8,4.5,3.7,10.3,7.6,13.7l0.2,0.2c-2.6,10.5,8.7,19.1,14.8,22.8l0.8,0.5c-8.4,9.9-13.6,28.5-13.6,28.5l23.5,4.2
	c0,0,15.6-13.5,13.6-26.1h0.2c15.6-3.1,19.1-19.7,16.7-29.6c0.1,0,0.2-0.1,0.3-0.1c2.8-1.2,5.3-3,7.2-5.5
	C325.5,639.5,316.3,632.7,311.9,638.6z"/>
<path class="st2" d="M311.9,638.6c-1,1.3-1.7,2.8-2.3,4.3c-0.1,0.4-0.3,0.8-0.4,1.2c-0.3-0.1-0.5-0.2-0.8-0.3
	c-1.2-0.3-2.4-0.4-3.6-0.3c0-0.5,0.1-1,0.1-1.5c0.1-5.3-0.5-12.6-5.5-9.5c-4.8,3-1.4,8,1.7,11.2l0.8,0.8c-2.8,2-3.4,6.7-3.9,11.6
	s-4.6,10.3-7.4,13.3c-0.3,0.3-0.5,0.6-0.8,0.8c-2.3-1.8-5.2-2.6-8-2.1c-0.1-0.4-0.2-0.9-0.4-1.4c-2.2-8.1-6.9-22.1-12.8-25.1l0.8-1
	c2.5-3.3,5.4-8.2,1.2-9.5s-4.6,4.3-4.3,8.4c0,0.5,0.1,1,0.1,1.5c-1.7,0.1-3.3,0.9-4.4,2.1l-0.6-0.8c-3.4-4-9.6-10.4-11.5-5.6
	c-1.8,4.5,3.7,10.3,7.6,13.7l0.2,0.2c-2.6,10.5,8.7,19.1,14.8,22.8l0.8,0.5c-8.4,9.9-13.6,28.5-13.6,28.5l23.5,4.2
	c0,0,15.6-13.5,13.6-26.1h0.2c15.6-3.1,19.1-19.7,16.7-29.6c0.1,0,0.2-0.1,0.3-0.1c2.8-1.2,5.3-3,7.2-5.5
	C325.5,639.5,316.3,632.7,311.9,638.6z"/>
<path class="st1" d="M265,645.4l-2.8,8c0,0-1.5-1.1-3.5-2.8c-3.9-3.4-9.3-9.2-7.6-13.7c1.9-4.8,8.1,1.5,11.5,5.6
	C264.1,644.2,265,645.4,265,645.4z"/>
<path class="st1" d="M270.8,640.9c-0.8,1.1-1.7,2.1-2.7,3.2c-0.2-1.4-0.4-2.8-0.5-4.2c-0.2-4.1,0.2-9.6,4.3-8.4
	S273.4,637.5,270.8,640.9z"/>
<path class="st1" d="M306.3,642.1c-0.1,2.7-0.3,4.8-0.3,4.8c-1.2-0.9-2.4-1.9-3.4-3c-3.1-3.2-6.5-8.2-1.7-11.2
	C305.8,629.5,306.5,636.9,306.3,642.1z"/>
<path class="st1" d="M322.6,645.6c-1.9,2.4-4.4,4.3-7.2,5.5c-0.8,0.3-1.6,0.6-2.4,0.9l-3.2-4.5c0.3-1.5,0.8-3,1.3-4.4
	c0.6-1.5,1.3-3,2.3-4.3C317.8,632.7,326.9,639.5,322.6,645.6z"/>
<path class="st2" d="M262.8,642.6c1.4,1.6,2.3,2.8,2.3,2.8l-2.8,8c0,0-1.5-1.1-3.5-2.8c0.4-2.6,1.5-5,3.1-7.1
	C262.2,643.3,262.5,642.9,262.8,642.6z"/>
<path class="st2" d="M270.8,640.9c-0.8,1.1-1.7,2.1-2.7,3.2c-0.2-1.4-0.4-2.8-0.5-4.2C268.8,639.8,269.9,640.2,270.8,640.9z"/>
<path class="st1" d="M284.4,672.8l-6.9,3c0,0-1.5-0.7-3.6-2c-7.2-4.4-21.6-15.6-12-28.7c9.7-13.1,17.8,10.4,21,21.9
	C283.9,670.4,284.4,672.8,284.4,672.8z"/>
<path class="st2" d="M302.5,643.9c1-1,2.3-1.6,3.8-1.7c-0.1,2.7-0.3,4.8-0.3,4.8C304.8,646,303.6,644.9,302.5,643.9z"/>
<path class="st2" d="M315.3,651c-0.8,0.3-1.6,0.6-2.4,0.9l-3.2-4.5c0.3-1.5,0.8-3,1.3-4.4C313.1,644.2,314.7,647.2,315.3,651z"/>
<path class="st1" d="M298.4,680.8l-1.1,0.2c-22.9,3.5-7.6-8.9-7.6-8.9s1-1,2.4-2.5c2.8-3,6.9-8.4,7.4-13.3
	c0.7-7.4,1.5-14.4,10.3-12.3C318.4,645.9,320,676.4,298.4,680.8z"/>
<rect x="254.1" y="737.8" class="st28" width="43.8" height="11.5"/>
<rect x="247.2" y="700.4" class="st28" width="57.2" height="40.2"/>
<rect x="254.1" y="737.8" class="st2" width="43.8" height="11.5"/>
<rect x="247.2" y="700.4" class="st2" width="57.2" height="40.2"/>
<rect x="257" y="737.8" class="st28" width="43.8" height="11.5"/>
<path class="st2" d="M282.9,667c1,3.4,1.5,5.8,1.5,5.8l-6.9,3c0,0-1.5-0.7-3.6-2C276.6,670.3,279.6,667.8,282.9,667z"/>
<path class="st2" d="M298.4,680.8l-1.1,0.2c-22.9,3.5-7.6-8.9-7.6-8.9s1-1,2.4-2.5C296.4,673,298.1,676.9,298.4,680.8z"/>
<path class="st1" d="M261,702.7c0,0,12.8-46,30.9-31.8s-7.3,36-7.3,36L261,702.7z"/>
<circle class="st2" cx="267.6" cy="652.3" r="1.4"/>
<circle class="st2" cx="267.5" cy="659" r="1.4"/>
<circle class="st2" cx="309.2" cy="653.6" r="1.4"/>
<circle class="st2" cx="275.6" cy="688" r="1.4"/>
<circle class="st2" cx="306.2" cy="664.8" r="1.4"/>
<circle class="st2" cx="291.3" cy="679.6" r="1.4"/>
<circle class="st2" cx="272.5" cy="655.2" r="1.4"/>
<circle class="st2" cx="305.3" cy="657.9" r="1.4"/>
<circle class="st2" cx="300.3" cy="669.1" r="1.4"/>
<circle class="st2" cx="285.2" cy="687" r="1.4"/>
<circle class="st2" cx="282.1" cy="679.9" r="1.4"/>
<circle class="st2" cx="274.7" cy="663.9" r="1.4"/>
<rect x="257" y="737.8" class="st2" width="43.8" height="4.2"/>
<rect x="250.1" y="700.4" class="st28" width="57.2" height="40.2"/>
<circle class="st2" cx="287.1" cy="693.4" r="1.4"/>
<circle class="st2" cx="278.5" cy="695.2" r="1.4"/>
</svg>
